<?xml version="1.0" encoding="utf-8"?>
<!-- Generator: Adobe Illustrator 16.0.0, SVG Export Plug-In . SVG Version: 6.00 Build 0)  -->
<!DOCTYPE svg PUBLIC "-//W3C//DTD SVG 1.1//EN" "http://www.w3.org/Graphics/SVG/1.1/DTD/svg11.dtd">
<svg version="1.1" xmlns="http://www.w3.org/2000/svg" xmlns:xlink="http://www.w3.org/1999/xlink" x="0px" y="0px" width="576px"
	 height="360px" viewBox="0 0 576 360" enable-background="new 0 0 576 360" xml:space="preserve">
<g id="Layer_1">
	<g opacity="0.2">
		<rect fill="#FFFFFF" width="576" height="360"/>
		<rect x="54" fill="#242A68" width="522" height="45"/>
		<rect y="45" fill="#282828" width="54" height="315"/>
		<rect fill="#4CA14A" width="54" height="45"/>
	</g>
</g>
<g id="Layer_2">
	<rect x="72" y="63" fill="#99CCFF" width="288" height="279"/>
	<rect x="378" y="63" fill="#99CCFF" width="180" height="279"/>
	<path fill="#FFCC66" d="M54,45v315h522V45H54z M72,63h288v279H72V63z M558,342H378V63h180V342z"/>
</g>
<g id="Layer_3">
	<rect x="71.5" y="63.5" fill="none" stroke="#000000" stroke-miterlimit="10" width="297" height="279"/>
	<rect x="368.5" y="63.5" fill="none" stroke="#000000" stroke-miterlimit="10" width="189" height="279"/>
	<rect x="53.5" y="45.5" fill="none" stroke="#000000" stroke-miterlimit="10" width="522" height="315"/>
</g>
<g id="Layer_4">
	<text transform="matrix(1 0 0 1 90 90)" font-family="'MyriadPro-Regular'" font-size="12">&lt;section&gt;</text>
	<text transform="matrix(1 0 0 1 387 90)" font-family="'MyriadPro-Regular'" font-size="12">&lt;aside&gt;</text>
	<text transform="matrix(1 0 0 1 63 36)" font-family="'MyriadPro-Regular'" font-size="12">&lt;div class=&quot;section-aside-grid&quot;&gt;</text>
</g>
</svg>
