<?xml version="1.0" encoding="utf-8"?>
<!-- Generator: Adobe Illustrator 17.0.0, SVG Export Plug-In . SVG Version: 6.00 Build 0)  -->
<!DOCTYPE svg PUBLIC "-//W3C//DTD SVG 1.1//EN" "http://www.w3.org/Graphics/SVG/1.1/DTD/svg11.dtd">
<svg version="1.1" id="All_glyphs" xmlns="http://www.w3.org/2000/svg" xmlns:xlink="http://www.w3.org/1999/xlink" x="0px" y="0px"
	 width="80px" height="80px" viewBox="0 0 80 80" enable-background="new 0 0 80 80" xml:space="preserve">
<g>
	<path d="M70,35H10c-2.762,0-5,2.238-5,5c0,2.762,2.238,5,5,5h60C72.762,45,75,42.762,75,40C75,37.238,72.762,35,70,35z M10,25h60
		C72.762,25,75,22.762,75,20c0-2.762-2.238-5-4.999-5H10c-2.762,0-5,2.238-5,5C5,22.762,7.239,25,10,25z M70,55H10
		c-2.762,0-5,2.238-5,5c0,2.762,2.238,5,5,5h60C72.762,65,75,62.762,75,60C75,57.238,72.762,55,70,55z"/>
</g>
</svg>
