<?xml version="1.0" encoding="utf-8"?>
<!-- Generator: Adobe Illustrator 17.0.0, SVG Export Plug-In . SVG Version: 6.00 Build 0)  -->
<!DOCTYPE svg PUBLIC "-//W3C//DTD SVG 1.1//EN" "http://www.w3.org/Graphics/SVG/1.1/DTD/svg11.dtd">
<svg version="1.1" id="All_glyphs" xmlns="http://www.w3.org/2000/svg" xmlns:xlink="http://www.w3.org/1999/xlink" x="0px" y="0px"
	 width="80px" height="80px" viewBox="0 0 80 80" enable-background="new 0 0 80 80" xml:space="preserve">
<g>
	<path d="M68.267,40c0-4.364,2.686-7.81,6.733-10.178c-0.728-2.436-1.694-4.769-2.882-6.967c-4.537,1.187-8.209-0.59-11.296-3.677
		s-4.032-6.76-2.844-11.296C55.781,6.694,53.448,5.728,51.011,5C48.642,9.047,44.365,11.733,40,11.733
		c-4.364,0-8.642-2.686-11.011-6.733c-2.436,0.728-4.769,1.694-6.966,2.882c1.187,4.537,0.243,8.21-2.844,11.297
		c-3.087,3.087-6.76,4.864-11.296,3.678C6.694,25.053,5.728,27.386,5,29.822C9.046,32.19,11.732,35.636,11.732,40
		S9.046,48.643,5,51.01c0.728,2.437,1.694,4.77,2.883,6.967c4.537-1.187,8.21-0.242,11.296,2.844
		c3.086,3.087,4.031,6.759,2.844,11.296c2.197,1.188,4.53,2.155,6.967,2.882c2.369-4.046,6.645-6.733,11.01-6.733
		c4.365,0,8.642,2.687,11.011,6.733c2.437-0.728,4.771-1.694,6.968-2.883c-1.187-4.535-0.243-8.208,2.843-11.295
		c3.087-3.086,6.759-4.865,11.296-3.678c1.188-2.197,2.154-4.53,2.882-6.967C70.954,47.809,68.267,44.364,68.267,40z M40,55.221
		c-8.406,0-15.221-6.815-15.221-15.221c0-8.407,6.814-15.221,15.221-15.221c8.407,0,15.221,6.815,15.221,15.221
		C55.221,48.406,48.407,55.221,40,55.221z"/>
</g>
</svg>
