<?xml version="1.0" encoding="utf-8"?>
<!-- Generator: Adobe Illustrator 17.0.0, SVG Export Plug-In . SVG Version: 6.00 Build 0)  -->
<!DOCTYPE svg PUBLIC "-//W3C//DTD SVG 1.1//EN" "http://www.w3.org/Graphics/SVG/1.1/DTD/svg11.dtd">
<svg version="1.1" id="All_glyphs" xmlns="http://www.w3.org/2000/svg" xmlns:xlink="http://www.w3.org/1999/xlink" x="0px" y="0px"
	 width="80px" height="80px" viewBox="0 0 80 80" enable-background="new 0 0 80 80" xml:space="preserve">
<path d="M69.395,27.91C62.95,12.916,52.58,1.496,47.333,3.629C38.422,7.25,52.641,24.643,8.886,42.429
	c-3.779,1.536-4.737,7.684-3.156,11.36c1.579,3.675,6.749,7.333,10.529,5.797c0.653-0.266,3.055-1.038,3.055-1.038
	c2.699,3.622,5.524,1.474,6.526,3.776c1.203,2.766,3.823,8.778,4.712,10.824c0.892,2.044,2.911,3.937,4.377,3.381
	c1.461-0.557,6.438-2.451,8.343-3.175c1.903-0.725,2.358-2.421,1.776-3.76c-0.628-1.443-3.2-1.866-3.933-3.549
	c-0.734-1.684-3.132-7.078-3.822-8.778c-0.938-2.313,1.054-4.193,3.947-4.495c19.915-2.075,23.638,10.224,30.418,7.467
	C76.907,58.105,75.839,42.905,69.395,27.91z M67.152,52.234c-1.165,0.474-9.003-5.708-14.012-17.365
	c-5.008-11.654-4.378-22.309-3.214-22.781c1.164-0.473,8.809,6.983,13.817,18.638C68.75,42.379,68.317,51.76,67.152,52.234z"/>
</svg>
