<?xml version="1.0" encoding="utf-8"?>
<!-- Generator: Adobe Illustrator 17.0.0, SVG Export Plug-In . SVG Version: 6.00 Build 0)  -->
<!DOCTYPE svg PUBLIC "-//W3C//DTD SVG 1.1//EN" "http://www.w3.org/Graphics/SVG/1.1/DTD/svg11.dtd">
<svg version="1.1" id="All_glyphs" xmlns="http://www.w3.org/2000/svg" xmlns:xlink="http://www.w3.org/1999/xlink" x="0px" y="0px"
	 width="80px" height="80px" viewBox="0 0 80 80" enable-background="new 0 0 80 80" xml:space="preserve">
<g>
	<path d="M7.31,21.666c1.898,1.021,28.188,15.142,29.166,15.668c0.979,0.526,2.247,0.78,3.524,0.78s2.545-0.254,3.524-0.78
		c0.978-0.526,27.267-14.647,29.166-15.668c1.9-1.02,3.697-4.222,0.207-4.222H7.102C3.615,17.444,5.41,20.647,7.31,21.666z
		 M73.495,29.444c-2.157,1.126-28.649,14.979-29.97,15.668c-1.322,0.69-2.247,0.78-3.524,0.78s-2.203-0.09-3.524-0.78
		C35.155,44.423,8.664,30.57,6.505,29.444C4.987,28.653,5,29.581,5,30.298s0,28.528,0,28.528c0,1.63,2.172,3.729,3.857,3.729h62.286
		c1.685,0,3.857-2.099,3.857-3.729c0,0,0-27.811,0-28.528S75.014,28.653,73.495,29.444z"/>
</g>
</svg>
