<?xml version="1.0" encoding="utf-8"?>
<!-- Generator: Adobe Illustrator 17.0.0, SVG Export Plug-In . SVG Version: 6.00 Build 0)  -->
<!DOCTYPE svg PUBLIC "-//W3C//DTD SVG 1.1//EN" "http://www.w3.org/Graphics/SVG/1.1/DTD/svg11.dtd">
<svg version="1.1" id="Layer_1" xmlns="http://www.w3.org/2000/svg" xmlns:xlink="http://www.w3.org/1999/xlink" x="0px" y="0px"
	 width="80px" height="80px" viewBox="0 0 80 80" enable-background="new 0 0 80 80" xml:space="preserve">
<path fill-rule="evenodd" clip-rule="evenodd" d="M73.409,75h-9.545c-0.879,0-1.591-0.712-1.591-1.591
	c0-0.878,0.712-1.591,1.591-1.591h7.954v-7.954c0-0.879,0.712-1.591,1.591-1.591c0.879,0,1.591,0.712,1.591,1.591v9.545
	C75,74.288,74.288,75,73.409,75z M73.409,55.909c-0.879,0-1.591-0.712-1.591-1.591v-9.545c0-0.879,0.712-1.591,1.591-1.591
	c0.879,0,1.591,0.712,1.591,1.591v9.545C75,55.197,74.288,55.909,73.409,55.909z M73.409,36.819c-0.879,0-1.591-0.712-1.591-1.592
	v-9.545c0-0.879,0.712-1.591,1.591-1.591c0.879,0,1.591,0.712,1.591,1.591v9.545C75,36.106,74.288,36.819,73.409,36.819z
	 M73.409,17.727c-0.879,0-1.591-0.712-1.591-1.591V8.182h-7.954c-0.879,0-1.591-0.712-1.591-1.591C62.273,5.712,62.985,5,63.864,5
	h9.545C74.288,5,75,5.712,75,6.591v9.545C75,17.015,74.288,17.727,73.409,17.727z M54.318,75h-9.545
	c-0.878,0-1.591-0.712-1.591-1.591c0-0.878,0.712-1.591,1.591-1.591h9.545c0.879,0,1.591,0.712,1.591,1.591
	C55.909,74.288,55.197,75,54.318,75z M54.318,8.182h-9.545c-0.878,0-1.591-0.712-1.591-1.591C43.182,5.712,43.894,5,44.772,5h9.545
	c0.879,0,1.591,0.712,1.591,1.591C55.909,7.469,55.197,8.182,54.318,8.182z M35.227,8.182h-9.545c-0.878,0-1.591-0.712-1.591-1.591
	C24.091,5.712,24.803,5,25.681,5h9.545c0.879,0,1.591,0.712,1.591,1.591C36.818,7.469,36.106,8.182,35.227,8.182z M16.136,75H6.591
	C5.712,75,5,74.288,5,73.409v-9.545c0-0.879,0.712-1.591,1.591-1.591c0.879,0,1.591,0.712,1.591,1.591v7.954h7.955
	c0.879,0,1.591,0.712,1.591,1.591C17.727,74.288,17.015,75,16.136,75z M16.136,8.182H8.182v7.955c0,0.879-0.712,1.591-1.591,1.591
	C5.712,17.727,5,17.015,5,16.136V6.591C5,5.712,5.712,5,6.591,5h9.545c0.879,0,1.591,0.712,1.591,1.591
	C17.727,7.469,17.015,8.182,16.136,8.182z M6.591,24.091c0.879,0,1.591,0.712,1.591,1.591v9.545c0,0.879-0.712,1.592-1.591,1.592
	C5.712,36.819,5,36.106,5,35.227v-9.545C5,24.803,5.712,24.091,6.591,24.091z M6.591,43.182c0.879,0,1.591,0.712,1.591,1.591v9.545
	c0,0.879-0.712,1.591-1.591,1.591C5.712,55.909,5,55.197,5,54.318v-9.545C5,43.894,5.712,43.182,6.591,43.182z M55.069,51.847
	l-3.223,3.223c-0.593,0.593-1.555,0.593-2.148,0l-9.132-9.132l-9.132,9.132c-0.593,0.593-1.555,0.593-2.148,0l-3.223-3.223
	c-0.593-0.593-0.593-1.556,0-2.148l9.132-9.132l-9.132-9.132c-0.593-0.593-0.593-1.555,0-2.149l3.223-3.223
	c0.593-0.593,1.555-0.593,2.148,0l9.132,9.132l9.132-9.132c0.593-0.593,1.555-0.593,2.148,0l3.223,3.223
	c0.593,0.594,0.593,1.556,0,2.149l-9.132,9.132l9.132,9.132C55.662,50.291,55.662,51.253,55.069,51.847z M25.681,71.818h9.545
	c0.879,0,1.591,0.712,1.591,1.591c0,0.879-0.712,1.591-1.591,1.591h-9.545c-0.878,0-1.591-0.712-1.591-1.591
	C24.091,72.531,24.803,71.818,25.681,71.818z"/>
</svg>
