<?xml version="1.0" encoding="utf-8"?>
<!-- Generator: Adobe Illustrator 17.0.0, SVG Export Plug-In . SVG Version: 6.00 Build 0)  -->
<!DOCTYPE svg PUBLIC "-//W3C//DTD SVG 1.1//EN" "http://www.w3.org/Graphics/SVG/1.1/DTD/svg11.dtd">
<svg version="1.1" id="All_glyphs" xmlns="http://www.w3.org/2000/svg" xmlns:xlink="http://www.w3.org/1999/xlink" x="0px" y="0px"
	 width="80px" height="80px" viewBox="0 0 80 80" enable-background="new 0 0 80 80" xml:space="preserve">
<g>
	<path d="M73.427,64.222L56.685,47.481c2.524-4.147,3.978-9.017,3.978-14.228C60.663,18.116,47.546,5,32.408,5
		C17.272,5,5,17.272,5,32.409s13.116,28.252,28.251,28.252c5.033,0,9.747-1.363,13.8-3.73l16.833,16.833
		c1.647,1.648,4.318,1.648,5.964,0l4.175-4.174C75.671,67.943,75.074,65.869,73.427,64.222z M13.434,32.409
		c0-10.481,8.496-18.976,18.974-18.976c10.481,0,19.821,9.338,19.821,19.819c0,10.48-8.496,18.976-18.977,18.976
		C22.773,52.229,13.434,42.89,13.434,32.409z"/>
</g>
</svg>
