<?xml version="1.0" encoding="utf-8"?>
<!-- Generator: Adobe Illustrator 17.0.0, SVG Export Plug-In . SVG Version: 6.00 Build 0)  -->
<!DOCTYPE svg PUBLIC "-//W3C//DTD SVG 1.1//EN" "http://www.w3.org/Graphics/SVG/1.1/DTD/svg11.dtd">
<svg version="1.1" id="All_glyphs" xmlns="http://www.w3.org/2000/svg" xmlns:xlink="http://www.w3.org/1999/xlink" x="0px" y="0px"
	 width="80px" height="80px" viewBox="0 0 80 80" enable-background="new 0 0 80 80" xml:space="preserve">
<g>
	<path d="M75,70.8c0,0-0.138-13.254-0.947-14.628c-1.204-2.046-4.01-3.452-9.219-5.629c-5.191-2.17-6.851-4.001-6.851-7.921
		c0-2.355,1.585-1.585,2.282-5.894c0.288-1.788,1.688-0.03,1.956-4.11c0-1.627-0.764-2.032-0.764-2.032s0.388-2.406,0.54-4.259
		c0.189-2.309-1.163-8.271-8.368-8.271c-7.206,0-8.557,5.962-8.369,8.271c0.152,1.853,0.539,4.259,0.539,4.259
		s-0.763,0.405-0.763,2.032c0.268,4.08,1.667,2.322,1.956,4.11c0.696,4.309,2.282,3.539,2.282,5.894
		c0,2.665-0.771,4.365-2.896,5.862C57.72,54.162,59.24,55.319,59.24,60.395V70.8H75z M40.782,52.514
		c-6.923-2.894-9.136-5.335-9.136-10.56c0-3.138,2.114-2.113,3.042-7.859c0.384-2.383,2.252-0.039,2.609-5.48
		c0-2.169-1.019-2.708-1.019-2.708s0.518-3.208,0.721-5.679C37.251,17.15,35.449,9.2,25.84,9.2c-9.607,0-11.411,7.95-11.158,11.028
		c0.202,2.47,0.719,5.679,0.719,5.679s-1.019,0.539-1.019,2.708c0.358,5.441,2.224,3.097,2.61,5.48
		c0.928,5.746,3.042,4.721,3.042,7.859c0,5.225-2.213,7.667-9.136,10.56C8.79,53.396,5,54.762,5,58.048V70.8h48.628
		c0,0,0-7.543,0-9.561C53.628,58.241,47.726,55.417,40.782,52.514z"/>
</g>
</svg>
