<?xml version="1.0" encoding="utf-8"?>
<!-- Generator: Adobe Illustrator 17.0.0, SVG Export Plug-In . SVG Version: 6.00 Build 0)  -->
<!DOCTYPE svg PUBLIC "-//W3C//DTD SVG 1.1//EN" "http://www.w3.org/Graphics/SVG/1.1/DTD/svg11.dtd">
<svg version="1.1" id="Layer_1" xmlns="http://www.w3.org/2000/svg" xmlns:xlink="http://www.w3.org/1999/xlink" x="0px" y="0px"
	 width="80px" height="80px" viewBox="0 0 80 80" enable-background="new 0 0 80 80" xml:space="preserve">
<path fill-rule="evenodd" clip-rule="evenodd" fill="#231F20" d="M73.408,75h-9.545c-0.878,0-1.591-0.712-1.591-1.591
	c0-0.878,0.712-1.591,1.591-1.591h7.955v-7.954c0-0.879,0.712-1.591,1.59-1.591c0.879,0,1.592,0.712,1.592,1.591v9.545
	C75,74.288,74.288,75,73.408,75z M73.408,55.909c-0.878,0-1.59-0.712-1.59-1.591v-9.545c0-0.879,0.712-1.591,1.59-1.591
	c0.879,0,1.592,0.712,1.592,1.591v9.545C75,55.197,74.288,55.909,73.408,55.909z M73.408,36.819c-0.878,0-1.59-0.712-1.59-1.592
	v-9.545c0-0.879,0.712-1.591,1.59-1.591c0.879,0,1.592,0.712,1.592,1.591v9.545C75,36.106,74.288,36.819,73.408,36.819z
	 M73.408,17.727c-0.878,0-1.59-0.712-1.59-1.591V8.182h-7.955c-0.878,0-1.591-0.712-1.591-1.591C62.273,5.712,62.985,5,63.864,5
	h9.545C74.288,5,75,5.712,75,6.591v9.545C75,17.015,74.288,17.727,73.408,17.727z M35.758,56.076c-0.587,0.588-1.54,0.588-2.127,0
	l-0.472-0.472l-0.002,0.002l-0.501-0.505l-2.216-2.215c-0.008-0.008-0.004-0.02-0.012-0.028l-10.14-10.215
	c-0.588-0.587-0.588-1.54,0-2.127l3.19-3.191c0.587-0.587,1.54-0.587,2.127,0l9.101,9.167l19.132-19.132
	c0.587-0.587,1.539-0.587,2.126,0l3.19,3.191c0.587,0.587,0.587,1.54,0,2.127L35.758,56.076z M54.318,8.182h-9.545
	c-0.879,0-1.591-0.712-1.591-1.591C43.182,5.712,43.894,5,44.773,5h9.545c0.879,0,1.591,0.712,1.591,1.591
	C55.909,7.469,55.197,8.182,54.318,8.182z M35.227,8.182h-9.545c-0.878,0-1.591-0.712-1.591-1.591C24.091,5.712,24.803,5,25.682,5
	h9.545c0.878,0,1.591,0.712,1.591,1.591C36.818,7.469,36.105,8.182,35.227,8.182z M16.136,75H6.591C5.712,75,5,74.288,5,73.409
	v-9.545c0-0.879,0.712-1.591,1.591-1.591s1.591,0.712,1.591,1.591v7.954h7.954c0.878,0,1.591,0.712,1.591,1.591
	C17.727,74.288,17.015,75,16.136,75z M16.136,8.182H8.182v7.955c0,0.879-0.712,1.591-1.591,1.591S5,17.015,5,16.136V6.591
	C5,5.712,5.712,5,6.591,5h9.545c0.878,0,1.591,0.712,1.591,1.591C17.727,7.469,17.015,8.182,16.136,8.182z M6.591,24.091
	c0.878,0,1.591,0.712,1.591,1.591v9.545c0,0.879-0.712,1.592-1.591,1.592S5,36.106,5,35.227v-9.545
	C5,24.803,5.712,24.091,6.591,24.091z M6.591,43.182c0.878,0,1.591,0.712,1.591,1.591v9.545c0,0.879-0.712,1.591-1.591,1.591
	S5,55.197,5,54.318v-9.545C5,43.894,5.712,43.182,6.591,43.182z M25.682,71.818h9.545c0.878,0,1.591,0.712,1.591,1.591
	c0,0.879-0.713,1.591-1.591,1.591h-9.545c-0.878,0-1.591-0.712-1.591-1.591C24.091,72.531,24.803,71.818,25.682,71.818z
	 M44.773,71.818h9.545c0.879,0,1.591,0.712,1.591,1.591c0,0.879-0.712,1.591-1.591,1.591h-9.545c-0.879,0-1.591-0.712-1.591-1.591
	C43.182,72.531,43.894,71.818,44.773,71.818z"/>
</svg>
