<?xml version="1.0" encoding="utf-8"?>
<!-- Generator: Adobe Illustrator 16.0.0, SVG Export Plug-In . SVG Version: 6.00 Build 0)  -->
<!DOCTYPE svg PUBLIC "-//W3C//DTD SVG 1.1//EN" "http://www.w3.org/Graphics/SVG/1.1/DTD/svg11.dtd">
<svg version="1.1" xmlns="http://www.w3.org/2000/svg" xmlns:xlink="http://www.w3.org/1999/xlink" x="0px" y="0px"
	 width="392.102px" height="278.55px" viewBox="0 0 392.102 278.55" enable-background="new 0 0 392.102 278.55"
	 xml:space="preserve">
<g id="Layer_2">
	<rect x="0.102" y="0.005" fill="#FFFFFF" width="195" height="192"/>
</g>
<g id="Layer_1">
	<path fill="#FFFFFF" d="M194.578,100.501c-12.748,0-34.193-19.417-23.76-45.492c7.102-17.747,16.823-33.073,23.76-55.35h0.053
		c6.96,22.315,16.68,37.647,23.761,55.35c10.32,26.075-11.008,45.492-23.761,45.492H194.578"/>
	<path fill="#264288" d="M194.717,95.311c-10.674,0-28.631-16.259-19.896-38.097c5.949-14.858,14.086-27.691,19.896-46.345h0.042
		c5.826,18.684,13.968,31.527,19.898,46.345c8.734,21.838-9.22,38.097-19.898,38.097H194.717"/>
	<path fill="#FFFFFF" d="M186.022,63.217c-0.217-2.689,0.312-8.28,0.193-11.34l-2.554,0.087c0,0-3.531,7.184-4.447,13.394
		c-0.905,6.208,0.387,10.745,1.486,13.16c0.427,0.945,2.407,4.447,5.137,4.944c2.057,0.379,3.442-0.235,4.116-0.797
		c1.085-0.879,1.772-4.036-0.007-6.925C188.833,73.941,186.626,70.811,186.022,63.217"/>
	<path fill="#FFFFFF" d="M195.729,143.148c0,0,46.169-0.678,50.479,6.951c1.575,2.791-11.329,9.121-18.567,9.705
		c0,0,29.969-1.939,30.815-9.219c0.896-7.697-62.708-7.879-62.708-7.879L195.729,143.148"/>
	<path fill="none" stroke="#FFFFFF" stroke-width="2" stroke-linejoin="round" d="M195.729,143.148c0,0,46.169-0.678,50.479,6.951
		c1.575,2.791-11.329,9.121-18.567,9.705c0,0,29.969-1.939,30.815-9.219c0.896-7.697-62.708-7.879-62.708-7.879L195.729,143.148z"/>
	<path fill="#FFFFFF" d="M195.361,135.027c0,0,96.083,0.037,104.288,14.57c3,5.32-21.581,17.381-35.367,18.492
		c0,0,57.1-3.693,58.72-17.564c1.699-14.666-127.621-15.99-127.621-15.99L195.361,135.027"/>
	<path fill="none" stroke="#FFFFFF" stroke-width="2" stroke-linejoin="round" d="M195.361,135.027c0,0,96.083,0.037,104.288,14.57
		c3,5.32-21.581,17.381-35.367,18.492c0,0,57.1-3.693,58.72-17.564c1.699-14.666-127.621-15.99-127.621-15.99L195.361,135.027z"/>
	<path fill="#FFFFFF" d="M196.086,127.066c0,0,142.203,1.195,148.102,22.688c2.292,8.354-30.651,24.678-50.216,26.262
		c0,0,83.366-5.113,83.366-24.951c0.015-25.955-181.212-24.729-181.212-24.729L196.086,127.066"/>
	<path fill="none" stroke="#FFFFFF" stroke-width="2" stroke-linejoin="round" d="M196.086,127.066
		c0,0,142.203,1.195,148.102,22.688c2.292,8.354-30.651,24.678-50.216,26.262c0,0,83.366-5.113,83.366-24.951
		c0.015-25.955-181.212-24.729-181.212-24.729L196.086,127.066z"/>
	<path fill="#264288" d="M194.508,143.148c0,0-46.16-0.678-50.469,6.951c-1.579,2.791,11.328,9.121,18.561,9.705
		c0,0-29.966-1.939-30.815-9.219c-0.898-7.697,62.71-7.879,62.71-7.879L194.508,143.148"/>
	<path fill="none" stroke="#264288" stroke-width="2" stroke-linejoin="round" d="M193.508,143.148c0,0-45.16-0.678-49.469,6.951
		c-1.579,2.791,11.328,9.121,18.561,9.705c0,0-29.966-1.939-30.815-9.219c-0.898-7.697,61.71-7.879,61.71-7.879L193.508,143.148z"/>
	<path fill="#264288" d="M194.877,135.027c0,0-96.075,0.037-104.286,14.57c-3.005,5.32,21.58,17.381,35.361,18.492
		c0,0-57.092-3.693-58.714-17.564c-1.706-14.666,127.616-15.99,127.616-15.99L194.877,135.027"/>
	<path fill="none" stroke="#264288" stroke-width="2" stroke-linejoin="round" d="M193.877,135.027c0,0-95.075,0.037-103.286,14.57
		c-3.005,5.32,21.58,17.381,35.361,18.492c0,0-57.092-3.693-58.714-17.564c-1.706-14.666,126.616-15.99,126.616-15.99
		L193.877,135.027z"/>
	<path fill="#264288" d="M194.149,127.066c0,0-142.197,1.195-148.097,22.688c-2.292,8.354,30.647,24.678,50.218,26.262
		c0,0-83.37-5.113-83.376-24.951c-0.007-25.955,181.22-24.729,181.22-24.729L194.149,127.066"/>
	<path fill="none" stroke="#264288" stroke-width="2" stroke-linejoin="round" d="M194.149,127.066
		c0,0-142.197,1.195-148.097,22.688c-2.292,8.354,30.647,24.678,50.218,26.262c0,0-83.37-5.113-83.376-24.951
		c-0.007-25.955,181.22-24.729,181.22-24.729L194.149,127.066z"/>
</g>
<g id="Layer_3">
	<path fill="#231F20" d="M16.141,224.779c-0.372-3.244-2.133-5.84-5.841-5.84c-2.689,0-5.099,1.391-5.099,4.82
		c0,3.246,3.245,5.191,7.88,8.668c4.914,3.662,6.49,6.027,6.49,9.873c0,5.518-5.655,8.576-11.218,8.576
		c-2.967,0-5.516-0.557-7.926-1.482c-0.186-0.094-0.325-0.279-0.325-0.65v-6.674h1.205c0.51,5.145,3.894,7.184,7.463,7.184
		c3.291,0,5.98-2.502,5.98-5.887c0-3.012-1.623-5.469-8.576-10.059c-2.503-1.67-5.608-3.477-5.608-8.529
		c0-4.172,4.635-7.463,9.966-7.463c1.993,0,4.635,0.232,6.489,0.881c0.278,0.094,0.325,0.277,0.325,0.51v6.072H16.141"/>
	<path fill="#231F20" d="M52.806,244.527c0,4.311-0.185,4.078,3.986,4.588v1.205H44.323v-1.205c4.172-0.51,3.987-0.277,3.987-4.588
		v-25.17h-4.172c-4.032,0-4.96,2.549-6.49,5.607H36.49l1.251-7.092h25.633l1.252,7.092h-1.159c-1.53-3.059-2.456-5.607-6.489-5.607
		h-4.172V244.527"/>
	<path fill="#231F20" d="M90.026,244.203c0,9.686-4.45,12.189-5.562,12.746c-0.881,0.463-3.523,1.668-4.821,1.623
		c-0.556,0-1.344,0-1.808-0.559l-1.854-2.131c-0.278-0.324,0.046-0.648,0.185-0.789l0.881-0.973
		c0.186-0.186,0.557-0.045,0.835,0.092l1.575,0.834c1.113,0.605,1.901,1.207,2.967,1.207c2.04,0,3.106-3.246,3.106-11.404v-21.182
		c0-4.311,0.185-4.08-3.987-4.59v-1.205h12.47v1.205c-4.172,0.51-3.987,0.279-3.987,4.59V244.203"/>
	<path fill="#231F20" d="M113.064,234.699c0-10.012,7.787-17.383,17.429-17.383c10.059,0,15.9,8.668,15.9,15.807
		c0,9.781-7.325,17.754-17.569,17.754C119.972,250.876,113.064,243.691,113.064,234.699 M141.108,234.513
		c0-11.078-5.98-15.574-11.635-15.574c-7.88,0-11.124,7.045-11.124,13.35c0,11.217,5.747,16.965,11.727,16.965
		C138.699,249.253,141.108,240.724,141.108,234.513z M127.435,215.462h-1.901l6.444-6.49c0.648-0.834,1.946-1.574,2.781-1.574
		c0.927,0,1.529,0.693,1.529,1.76c0,0.881-1.298,1.623-2.132,2.133L127.435,215.462z"/>
	<path fill="#231F20" d="M165.443,217.873h13.489c4.681,0,9.362,2.457,9.362,7.881c0,4.773-2.92,8.064-6.488,9.455l4.542,6.908
		c2.272,3.43,4.914,6.627,6.536,7.6v0.604h-4.774c-2.735,0-4.218-5.053-9.827-14.369h-4.356v8.576c0,4.311-0.187,4.078,3.985,4.588
		v1.205h-12.469v-1.205c4.172-0.51,3.986-0.277,3.986-4.588v-20.859c0-4.311,0.186-4.08-3.986-4.59V217.873 M173.927,234.466h3.847
		c4.033,0,5.887-3.059,5.887-8.297c0-5.051-2.781-6.812-6.164-6.812h-3.569V234.466z"/>
	<path fill="#231F20" d="M238.219,250.32c-7.371-8.715-15.019-17.846-22.574-26.746v20.488c0,0.975,0.186,1.762,0.278,2.504
		c0.231,1.668,1.808,2.316,4.867,2.549v1.205h-11.357v-1.205c2.226-0.232,3.755-0.881,3.986-2.549
		c0.093-0.742,0.278-1.529,0.278-2.504V222.23c-1.298-1.668-2.734-3.152-5.377-3.152v-1.205h8.437
		c6.906,8.389,14.091,16.92,20.998,25.309h0.093V224.13c0-0.973-0.186-1.762-0.278-2.502c-0.231-1.67-1.808-2.318-4.867-2.551
		v-1.205h11.356v1.205c-2.179,0.232-3.754,0.881-3.986,2.551c-0.093,0.74-0.278,1.529-0.278,2.502v26.189H238.219"/>
	<path fill="#231F20" d="M272.936,219.078c-2.549,0-4.357,0.742-2.874,5.191c1.854,5.471,4.497,13.443,6.907,20.488
		c2.967-7.092,5.794-14.23,8.668-21.322c1.158-2.922-0.047-4.357-3.198-4.357v-1.205h10.012v1.205c-1.344,0-2.874,0.465-3.847,2.781
		c-3.894,9.502-7.834,18.959-11.728,28.461h-2.364c-2.827-8.02-6.025-16.965-8.807-24.846c-1.762-4.961-3.152-6.396-5.377-6.396
		v-1.205h12.607V219.078"/>
	<path fill="#231F20" d="M318.408,244.527c0,4.311-0.186,4.078,3.986,4.588v1.205h-12.469v-1.205
		c4.172-0.51,3.986-0.277,3.986-4.588v-20.859c0-4.311,0.186-4.08-3.986-4.59v-1.205h12.469v1.205
		c-4.172,0.51-3.986,0.279-3.986,4.59V244.527 M313.865,215.462h-1.9l6.443-6.49c0.648-0.834,1.946-1.574,2.781-1.574
		c0.927,0,1.529,0.693,1.529,1.76c0,0.881-1.298,1.623-2.132,2.133L313.865,215.462z"/>
	<path fill="#231F20" d="M357.113,224.779c-0.371-3.244-2.133-5.84-5.841-5.84c-2.688,0-5.099,1.391-5.099,4.82
		c0,3.246,3.244,5.191,7.88,8.668c4.913,3.662,6.489,6.027,6.489,9.873c0,5.518-5.655,8.576-11.217,8.576
		c-2.967,0-5.517-0.557-7.927-1.482c-0.186-0.094-0.324-0.279-0.324-0.65v-6.674h1.205c0.509,5.145,3.894,7.184,7.463,7.184
		c3.291,0,5.979-2.502,5.979-5.887c0-3.012-1.622-5.469-8.575-10.059c-2.503-1.67-5.608-3.477-5.608-8.529
		c0-4.172,4.635-7.463,9.965-7.463c1.994,0,4.636,0.232,6.49,0.881c0.277,0.094,0.324,0.277,0.324,0.51v6.072H357.113"/>
	<path fill="#231F20" d="M387.707,244.527c0,4.311-0.186,4.078,3.986,4.588v1.205h-12.469v-1.205
		c4.172-0.51,3.986-0.277,3.986-4.588v-20.859c0-4.311,0.186-4.08-3.986-4.59v-1.205h12.469v1.205
		c-4.172,0.51-3.986,0.279-3.986,4.59V244.527"/>
	<polyline fill="#231F20" points="112.122,259.679 119.625,259.679 119.625,261.46 114.144,261.46 114.144,265.585 119.382,265.585 
		119.382,267.367 114.144,267.367 114.144,273.796 112.122,273.796 112.122,259.679 	"/>
	<path fill="#231F20" d="M130.083,273.373c-0.729,0.262-1.558,0.668-3.257,0.668c-3.661,0-5.34-2.225-5.34-5.582
		c0-3.055,1.922-5.219,4.835-5.219c3.438,0,4.551,2.508,4.551,5.824h-7.363c0,2.043,1.598,3.439,3.398,3.439
		c1.254,0,2.711-0.646,3.176-1.033V273.373 M128.849,267.65c0-1.578-0.931-2.873-2.569-2.873c-1.861,0-2.629,1.537-2.771,2.873
		H128.849z M126.644,259.132h2.205l-2.65,2.914h-1.355L126.644,259.132z"/>
	<rect x="133.663" y="258.628" fill="#231F20" width="1.901" height="15.168"/>
	<path fill="#231F20" d="M139.528,264.21c0.95-0.566,2.083-0.971,3.398-0.971c2.953,0,4.146,1.457,4.146,4.268v4.268
		c0,1.174,0.041,1.719,0.081,2.021h-1.78v-1.334h-0.04c-0.445,0.627-1.457,1.578-3.196,1.578c-2.225,0-3.783-0.971-3.783-3.217
		c0-2.588,2.832-3.398,4.794-3.398c0.749,0,1.275,0,2.023,0.041c0-1.779-0.647-2.689-2.548-2.689c-1.073,0-2.226,0.404-2.994,1.051
		L139.528,264.21 M145.171,268.882c-0.404,0-0.809-0.041-1.214-0.041c-1.031,0-3.58,0.162-3.58,1.982c0,1.094,1.052,1.68,1.922,1.68
		c1.881,0,2.872-1.174,2.872-2.711V268.882z"/>
	<path fill="#231F20" d="M159.412,273.353c0,3.135-1.619,4.936-5.32,4.936c-1.092,0-2.043-0.143-3.701-0.709l0.202-1.76
		c1.456,0.668,2.326,0.932,3.721,0.932c2.003,0,3.196-1.355,3.196-3.541v-1.01h-0.04c-0.81,1.07-2.144,1.596-3.459,1.596
		c-2.953,0-4.409-2.406-4.409-5.076c0-2.648,1.497-5.48,4.611-5.48c1.821,0,2.833,0.668,3.398,1.779h0.041v-1.537h1.761V273.353
		 M157.51,268.761c0-2.145-0.991-3.984-3.013-3.984c-1.922,0-2.873,2.084-2.873,3.844c0,1.941,1.093,3.639,2.873,3.639
		C156.275,272.259,157.51,270.681,157.51,268.761z"/>
	<path fill="#231F20" d="M177.393,273.796h-1.841v-1.637h-0.04c-0.566,1.174-1.942,1.881-3.378,1.881
		c-2.671,0-3.863-1.66-3.863-4.43v-6.129h1.901v5.34c0,2.408,0.525,3.641,2.184,3.682c2.165,0.061,3.137-1.74,3.137-4.248v-4.773
		h1.9V273.796"/>
	<path fill="#231F20" d="M180.608,263.482h1.78v1.498h0.041c0.729-1.193,1.759-1.74,3.275-1.74c1.193,0,2.388,0.605,2.934,2.002
		c0.708-1.477,2.265-2.002,3.195-2.002c2.629,0,3.58,1.699,3.58,3.943v6.613h-1.901v-6.146c0-1.275-0.304-2.873-1.841-2.873
		c-1.941,0-2.709,1.9-2.709,3.822v5.197h-1.902v-6.146c0-1.275-0.303-2.873-1.84-2.873c-1.942,0-2.711,1.9-2.711,3.822v5.197h-1.901
		V263.482"/>
	<path fill="#231F20" d="M205.466,265.019h-2.426v-1.537h2.426v-0.951c0-2.508,0.647-4.146,3.459-4.146
		c0.485,0,0.89,0.062,1.274,0.121l-0.081,1.539c-0.223-0.082-0.587-0.121-0.91-0.121c-1.639,0-1.841,1.051-1.841,2.447v1.111h2.73
		v1.537h-2.73v8.777h-1.901V265.019"/>
	<path fill="#231F20" d="M212.101,263.482h1.78v1.598h0.04c0.506-1.072,1.598-1.84,2.69-1.84c0.566,0,0.85,0.061,1.254,0.141v1.699
		c-0.344-0.141-0.729-0.182-1.052-0.182c-1.699,0-2.812,1.617-2.812,4.207v4.691h-1.901V263.482"/>
	<path fill="#231F20" d="M220.454,264.21c0.95-0.566,2.083-0.971,3.398-0.971c2.953,0,4.146,1.457,4.146,4.268v4.268
		c0,1.174,0.041,1.719,0.08,2.021H226.3v-1.334h-0.041c-0.444,0.627-1.456,1.578-3.195,1.578c-2.225,0-3.782-0.971-3.782-3.217
		c0-2.588,2.831-3.398,4.793-3.398c0.749,0,1.274,0,2.023,0.041c0-1.779-0.647-2.689-2.549-2.689c-1.072,0-2.225,0.404-2.993,1.051
		L220.454,264.21 M226.098,268.882c-0.405,0-0.81-0.041-1.214-0.041c-1.031,0-3.58,0.162-3.58,1.982c0,1.094,1.052,1.68,1.922,1.68
		c1.881,0,2.872-1.174,2.872-2.711V268.882z"/>
	<path fill="#231F20" d="M231.194,263.482h1.78v1.498h0.04c0.729-1.193,1.76-1.74,3.277-1.74c1.193,0,2.387,0.605,2.933,2.002
		c0.708-1.477,2.266-2.002,3.195-2.002c2.63,0,3.58,1.699,3.58,3.943v6.613h-1.901v-6.146c0-1.275-0.303-2.873-1.84-2.873
		c-1.942,0-2.711,1.9-2.711,3.822v5.197h-1.901v-6.146c0-1.275-0.303-2.873-1.84-2.873c-1.942,0-2.711,1.9-2.711,3.822v5.197h-1.901
		V263.482"/>
	<path fill="#231F20" d="M248.428,271.775c0.748,0.484,1.82,0.729,2.366,0.729c0.871,0,1.942-0.365,1.942-1.477
		c0-1.881-4.471-1.721-4.471-4.611c0-2.145,1.598-3.176,3.641-3.176c0.891,0,1.618,0.182,2.367,0.404l-0.162,1.658
		c-0.425-0.262-1.558-0.525-2.003-0.525c-0.971,0-1.82,0.404-1.82,1.254c0,2.104,4.471,1.496,4.471,4.793
		c0,2.205-1.76,3.217-3.601,3.217c-0.971,0-1.962-0.102-2.832-0.566L248.428,271.775"/>
	<path fill="#231F20" d="M257.51,264.23c0.89-0.566,2.083-0.99,3.418-0.99c1.375,0,2.852,0.506,3.56,1.801
		c0.729-1.295,2.124-1.801,3.58-1.801c3.499,0,4.531,2.811,4.531,5.824h-7.302c0,1.9,1.416,3.439,3.378,3.439
		c1.011,0,2.123-0.486,2.852-1.072v1.922c-0.89,0.404-1.941,0.688-2.953,0.688c-1.76,0-3.782-0.566-4.449-2.408h-0.041
		c-0.425,1.639-2.164,2.408-3.823,2.408c-1.921,0-3.984-1.193-3.984-3.297c0-2.854,3.196-3.318,4.976-3.318
		c1.093,0,1.76,0.121,2.145,0.102c0-2.002-1.295-2.75-2.913-2.75c-0.991,0-2.083,0.484-2.872,1.051L257.51,264.23 M260.321,272.503
		c1.82,0,3.074-1.68,3.074-3.6c-0.304,0-0.91-0.062-1.82-0.062c-1.072,0-3.277,0.223-3.277,1.963
		C258.298,271.957,259.31,272.503,260.321,272.503z M270.576,267.65c0-1.355-0.972-2.873-2.528-2.873
		c-1.659,0-2.751,1.273-2.751,2.873H270.576z"/>
	<polyline fill="#231F20" points="275.046,258.628 276.947,258.628 276.947,267.669 281.094,263.482 283.683,263.482 
		278.889,268.052 284.289,273.796 281.559,273.796 276.947,268.498 276.947,273.796 275.046,273.796 275.046,258.628 	"/>
	<path fill="#231F20" d="M286.291,263.482h1.841v1.639h0.04c0.566-1.174,1.941-1.881,3.378-1.881c2.67,0,3.864,1.658,3.864,4.43
		v6.127h-1.902v-5.338c0-2.408-0.525-3.641-2.185-3.682c-2.163-0.062-3.135,1.738-3.135,4.248v4.771h-1.901V263.482"/>
	<path fill="#231F20" d="M299.135,264.21c0.95-0.566,2.083-0.971,3.398-0.971c2.953,0,4.146,1.457,4.146,4.268v4.268
		c0,1.174,0.04,1.719,0.08,2.021h-1.779v-1.334h-0.041c-0.444,0.627-1.456,1.578-3.195,1.578c-2.225,0-3.782-0.971-3.782-3.217
		c0-2.588,2.831-3.398,4.793-3.398c0.749,0,1.274,0,2.023,0.041c0-1.779-0.647-2.689-2.549-2.689c-1.072,0-2.225,0.404-2.993,1.051
		L299.135,264.21 M304.778,268.882c-0.404,0-0.81-0.041-1.214-0.041c-1.031,0-3.58,0.162-3.58,1.982c0,1.094,1.052,1.68,1.922,1.68
		c1.881,0,2.872-1.174,2.872-2.711V268.882z"/>
	<path fill="#231F20" d="M314.75,271.775c0.748,0.484,1.82,0.729,2.366,0.729c0.87,0,1.942-0.365,1.942-1.477
		c0-1.881-4.471-1.721-4.471-4.611c0-2.145,1.598-3.176,3.641-3.176c0.891,0,1.618,0.182,2.367,0.404l-0.162,1.658
		c-0.425-0.262-1.558-0.525-2.003-0.525c-0.971,0-1.82,0.404-1.82,1.254c0,2.104,4.472,1.496,4.472,4.793
		c0,2.205-1.761,3.217-3.602,3.217c-0.971,0-1.962-0.102-2.832-0.566L314.75,271.775"/>
	<path fill="#231F20" d="M328.868,265.019h-2.73v5.645c0,1.193,0.728,1.84,1.598,1.84c0.587,0,1.013-0.182,1.295-0.365v1.619
		c-0.425,0.121-1.012,0.283-1.618,0.283c-1.962,0-3.176-0.93-3.176-2.994v-6.027h-2.326v-1.537h2.326v-2.387l1.901-0.605v2.992h2.73
		V265.019"/>
	<path fill="#231F20" d="M329.374,276.57c0.242,0.039,0.404,0.061,0.769,0.061c0.89,0,1.355-0.85,1.355-2.186v-10.963h1.9v10.68
		c0,1.496-0.061,4.127-2.912,4.127c-0.404,0-0.91-0.021-1.173-0.082L329.374,276.57 M333.521,261.175h-2.145v-2.143h2.145V261.175z"
		/>
	<path fill="#231F20" d="M341.449,263.24c3.135,0,5.238,2.266,5.238,5.398c0,2.953-2.144,5.402-5.238,5.402
		c-3.115,0-5.259-2.449-5.259-5.402C336.19,265.505,338.294,263.24,341.449,263.24 M341.449,272.503
		c2.225,0,3.217-2.023,3.217-3.865c0-1.961-1.194-3.861-3.217-3.861c-2.043,0-3.236,1.9-3.236,3.861
		C338.213,270.48,339.204,272.503,341.449,272.503z M341.914,259.132h2.205l-2.649,2.914h-1.355L341.914,259.132z"/>
	<path fill="#231F20" d="M349.236,263.482h1.78v1.598h0.04c0.506-1.072,1.598-1.84,2.691-1.84c0.565,0,0.849,0.061,1.253,0.141
		v1.699c-0.344-0.141-0.729-0.182-1.052-0.182c-1.699,0-2.812,1.617-2.812,4.207v4.691h-1.901V263.482"/>
	<path fill="#231F20" d="M357.104,263.482h1.841v1.639h0.04c0.566-1.174,1.942-1.881,3.378-1.881c2.67,0,3.863,1.658,3.863,4.43
		v6.127h-1.901v-5.338c0-2.408-0.525-3.641-2.185-3.682c-2.164-0.062-3.135,1.738-3.135,4.248v4.771h-1.901V263.482"/>
	<path fill="#231F20" d="M378.585,273.796h-1.841v-1.637h-0.04c-0.566,1.174-1.942,1.881-3.378,1.881c-2.67,0-3.863-1.66-3.863-4.43
		v-6.129h1.901v5.34c0,2.408,0.525,3.641,2.185,3.682c2.164,0.061,3.135-1.74,3.135-4.248v-4.773h1.901V273.796"/>
	<path fill="#231F20" d="M381.821,263.482h1.841v1.639h0.04c0.566-1.174,1.942-1.881,3.378-1.881c2.67,0,3.863,1.658,3.863,4.43
		v6.127h-1.901v-5.338c0-2.408-0.525-3.641-2.185-3.682c-2.164-0.062-3.135,1.738-3.135,4.248v4.771h-1.901V263.482"/>
</g>
</svg>
