<?xml version="1.0" encoding="utf-8"?>
<!-- Generator: Adobe Illustrator 16.0.0, SVG Export Plug-In . SVG Version: 6.00 Build 0)  -->
<!DOCTYPE svg PUBLIC "-//W3C//DTD SVG 1.1//EN" "http://www.w3.org/Graphics/SVG/1.1/DTD/svg11.dtd">
<svg version="1.1" id="Layer_1" xmlns="http://www.w3.org/2000/svg" xmlns:xlink="http://www.w3.org/1999/xlink" x="0px" y="0px"
	 width="394.269px" height="362.282px" viewBox="0 0 394.269 362.282" enable-background="new 0 0 394.269 362.282"
	 xml:space="preserve">
<g>
	<defs>
		<rect id="SVGID_1_" x="-194" y="-0.001" width="394.26" height="362.269"/>
	</defs>
	<use xlink:href="#SVGID_1_"  overflow="visible" fill="#FFFFFF"/>
	<clipPath id="SVGID_2_">
		<use xlink:href="#SVGID_1_"  overflow="visible"/>
	</clipPath>
	<rect x="0.84" y="-0.001" clip-path="url(#SVGID_2_)" fill="#FFFFFF" width="199.42" height="285.834"/>
</g>
<path fill="#FFFFFF" d="M194.476,172.495c-12.748,0-34.193-19.417-23.76-45.492c7.102-17.747,16.823-33.073,23.76-55.35h0.053
	c6.96,22.315,16.68,37.647,23.761,55.35c10.32,26.075-11.008,45.492-23.761,45.492H194.476"/>
<path fill="#264289" d="M194.615,167.305c-10.674,0-28.631-16.259-19.896-38.097c5.949-14.858,14.086-27.691,19.896-46.345h0.042
	c5.826,18.684,13.968,31.527,19.898,46.345c8.734,21.838-9.22,38.097-19.898,38.097H194.615"/>
<path fill="#FFFFFF" d="M185.921,135.211c-0.217-2.689,0.312-8.28,0.193-11.34l-2.554,0.087c0,0-3.531,7.184-4.447,13.394
	c-0.905,6.208,0.387,10.745,1.486,13.16c0.427,0.945,2.407,4.447,5.137,4.944c2.057,0.379,3.442-0.235,4.116-0.797
	c1.085-0.879,1.772-4.036-0.007-6.925C188.732,145.935,186.525,142.805,185.921,135.211"/>
<path fill="#FFFFFF" d="M195.627,229.142c0,0,46.169-0.678,50.479,6.951c1.575,2.791-11.329,9.121-18.567,9.705
	c0,0,29.969-1.939,30.815-9.218c0.896-7.698-62.708-7.879-62.708-7.879L195.627,229.142"/>
<path fill="none" stroke="#FFFFFF" stroke-width="2" stroke-linejoin="round" d="M195.627,229.142c0,0,46.169-0.678,50.479,6.951
	c1.575,2.791-11.329,9.121-18.567,9.705c0,0,29.969-1.939,30.815-9.218c0.896-7.698-62.708-7.879-62.708-7.879L195.627,229.142z"/>
<path fill="#FFFFFF" d="M195.26,221.021c0,0,96.083,0.037,104.288,14.571c3,5.319-21.581,17.381-35.367,18.492
	c0,0,57.1-3.694,58.72-17.564c1.699-14.667-127.621-15.991-127.621-15.991L195.26,221.021"/>
<path fill="none" stroke="#FFFFFF" stroke-width="2" stroke-linejoin="round" d="M195.26,221.021c0,0,96.083,0.037,104.288,14.571
	c3,5.319-21.581,17.381-35.367,18.492c0,0,57.1-3.694,58.72-17.564c1.699-14.667-127.621-15.991-127.621-15.991L195.26,221.021z"/>
<path fill="#FFFFFF" d="M195.985,213.06c0,0,142.203,1.196,148.102,22.688c2.292,8.354-30.651,24.678-50.216,26.262
	c0,0,83.366-5.113,83.366-24.951c0.015-25.955-181.212-24.728-181.212-24.728L195.985,213.06"/>
<path fill="none" stroke="#FFFFFF" stroke-width="2" stroke-linejoin="round" d="M195.985,213.06c0,0,142.203,1.196,148.102,22.688
	c2.292,8.354-30.651,24.678-50.216,26.262c0,0,83.366-5.113,83.366-24.951c0.015-25.955-181.212-24.728-181.212-24.728
	L195.985,213.06z"/>
<path d="M16.039,308.773c-0.372-3.244-2.133-5.84-5.841-5.84c-2.689,0-5.099,1.391-5.099,4.819c0,3.246,3.245,5.192,7.88,8.668
	c4.914,3.662,6.49,6.027,6.49,9.873c0,5.518-5.655,8.577-11.218,8.577c-2.967,0-5.516-0.557-7.926-1.483
	C0.139,333.294,0,333.109,0,332.738v-6.675h1.205c0.51,5.146,3.894,7.185,7.463,7.185c3.291,0,5.98-2.503,5.98-5.887
	c0-3.013-1.623-5.47-8.576-10.06c-2.503-1.669-5.608-3.476-5.608-8.528c0-4.172,4.635-7.463,9.966-7.463
	c1.993,0,4.635,0.231,6.489,0.881c0.278,0.093,0.325,0.277,0.325,0.51v6.072H16.039"/>
<path d="M52.704,328.521c0,4.311-0.185,4.079,3.986,4.589v1.205H44.221v-1.205c4.172-0.51,3.987-0.278,3.987-4.589v-25.17h-4.172
	c-4.032,0-4.96,2.549-6.49,5.608h-1.158l1.251-7.092h25.633l1.252,7.092h-1.159c-1.53-3.06-2.456-5.608-6.489-5.608h-4.172V328.521"
	/>
<path d="M89.925,328.196c0,9.687-4.45,12.189-5.562,12.747c-0.881,0.463-3.523,1.668-4.821,1.622c-0.556,0-1.344,0-1.808-0.558
	l-1.854-2.132c-0.278-0.324,0.046-0.648,0.185-0.788l0.881-0.973c0.186-0.186,0.557-0.046,0.835,0.092l1.575,0.834
	c1.113,0.604,1.901,1.207,2.967,1.207c2.04,0,3.106-3.246,3.106-11.404v-21.183c0-4.311,0.185-4.079-3.987-4.589v-1.205h12.47v1.205
	c-4.172,0.51-3.987,0.278-3.987,4.589V328.196"/>
<path d="M112.963,318.693c0-10.013,7.787-17.383,17.429-17.383c10.059,0,15.9,8.668,15.9,15.807c0,9.78-7.325,17.754-17.569,17.754
	C119.87,334.871,112.963,327.686,112.963,318.693 M141.007,318.507c0-11.077-5.98-15.573-11.635-15.573
	c-7.88,0-11.124,7.045-11.124,13.35c0,11.217,5.747,16.965,11.727,16.965C138.597,333.248,141.007,324.719,141.007,318.507z
	 M127.333,299.457h-1.901l6.444-6.491c0.648-0.834,1.946-1.574,2.781-1.574c0.927,0,1.529,0.694,1.529,1.761
	c0,0.881-1.298,1.623-2.132,2.133L127.333,299.457z"/>
<path d="M165.342,301.867h13.489c4.681,0,9.363,2.457,9.363,7.88c0,4.774-2.92,8.065-6.489,9.456l4.542,6.907
	c2.272,3.43,4.914,6.628,6.536,7.601v0.604h-4.774c-2.735,0-4.218-5.054-9.827-14.369h-4.357v8.575c0,4.311-0.186,4.079,3.986,4.589
	v1.205h-12.469v-1.205c4.172-0.51,3.986-0.278,3.986-4.589v-20.859c0-4.311,0.186-4.079-3.986-4.589V301.867 M173.825,318.461h3.847
	c4.033,0,5.887-3.059,5.887-8.297c0-5.052-2.782-6.813-6.165-6.813h-3.569V318.461z"/>
<path d="M238.117,334.314c-7.371-8.715-15.019-17.847-22.574-26.746v20.488c0,0.974,0.186,1.762,0.278,2.503
	c0.231,1.669,1.808,2.317,4.867,2.55v1.205h-11.357v-1.205c2.226-0.232,3.755-0.881,3.986-2.55c0.093-0.741,0.278-1.529,0.278-2.503
	v-21.832c-1.298-1.669-2.734-3.152-5.377-3.152v-1.205h8.437c6.906,8.389,14.091,16.919,20.998,25.308h0.093v-19.05
	c0-0.974-0.186-1.762-0.278-2.503c-0.231-1.669-1.808-2.318-4.867-2.55v-1.205h11.356v1.205c-2.179,0.231-3.754,0.881-3.986,2.55
	c-0.093,0.741-0.278,1.529-0.278,2.503v26.189H238.117"/>
<path d="M272.834,303.072c-2.549,0-4.357,0.741-2.874,5.191c1.854,5.47,4.497,13.442,6.907,20.487
	c2.967-7.091,5.794-14.229,8.668-21.321c1.158-2.922-0.047-4.357-3.198-4.357v-1.205h10.012v1.205c-1.344,0-2.874,0.464-3.847,2.781
	c-3.894,9.502-7.834,18.958-11.728,28.461h-2.364c-2.827-8.021-6.025-16.966-8.807-24.847c-1.762-4.96-3.152-6.396-5.377-6.396
	v-1.205h12.607V303.072"/>
<path d="M318.307,328.521c0,4.311-0.186,4.079,3.986,4.589v1.205h-12.469v-1.205c4.172-0.51,3.986-0.278,3.986-4.589v-20.859
	c0-4.311,0.186-4.079-3.986-4.589v-1.205h12.469v1.205c-4.172,0.51-3.986,0.278-3.986,4.589V328.521 M313.764,299.457h-1.9
	l6.443-6.491c0.648-0.834,1.946-1.574,2.781-1.574c0.927,0,1.529,0.694,1.529,1.761c0,0.881-1.298,1.623-2.132,2.133
	L313.764,299.457z"/>
<path d="M357.012,308.773c-0.371-3.244-2.133-5.84-5.841-5.84c-2.688,0-5.099,1.391-5.099,4.819c0,3.246,3.244,5.192,7.88,8.668
	c4.913,3.662,6.489,6.027,6.489,9.873c0,5.518-5.655,8.577-11.217,8.577c-2.967,0-5.517-0.557-7.927-1.483
	c-0.186-0.094-0.324-0.278-0.324-0.649v-6.675h1.205c0.509,5.146,3.894,7.185,7.463,7.185c3.291,0,5.979-2.503,5.979-5.887
	c0-3.013-1.622-5.47-8.575-10.06c-2.503-1.669-5.608-3.476-5.608-8.528c0-4.172,4.635-7.463,9.965-7.463
	c1.994,0,4.636,0.231,6.49,0.881c0.277,0.093,0.324,0.277,0.324,0.51v6.072H357.012"/>
<path d="M387.605,328.521c0,4.311-0.186,4.079,3.986,4.589v1.205h-12.469v-1.205c4.172-0.51,3.986-0.278,3.986-4.589v-20.859
	c0-4.311,0.186-4.079-3.986-4.589v-1.205h12.469v1.205c-4.172,0.51-3.986,0.278-3.986,4.589V328.521"/>
<path fill="#264289" d="M194.406,229.142c0,0-46.16-0.678-50.469,6.951c-1.579,2.791,11.328,9.121,18.561,9.705
	c0,0-29.966-1.939-30.815-9.218c-0.898-7.698,62.71-7.879,62.71-7.879L194.406,229.142"/>
<path fill="none" stroke="#264289" stroke-width="2" stroke-linejoin="round" d="M194.406,229.142c0,0-46.16-0.678-50.469,6.951
	c-1.579,2.791,11.328,9.121,18.561,9.705c0,0-29.966-1.939-30.815-9.218c-0.898-7.698,62.71-7.879,62.71-7.879L194.406,229.142z"/>
<path fill="#264289" d="M194.776,221.021c0,0-96.075,0.037-104.286,14.571c-3.005,5.319,21.58,17.381,35.361,18.492
	c0,0-57.092-3.694-58.714-17.564c-1.706-14.667,127.616-15.991,127.616-15.991L194.776,221.021"/>
<path fill="none" stroke="#264289" stroke-width="2" stroke-linejoin="round" d="M194.776,221.021c0,0-96.075,0.037-104.286,14.571
	c-3.005,5.319,21.58,17.381,35.361,18.492c0,0-57.092-3.694-58.714-17.564c-1.706-14.667,127.616-15.991,127.616-15.991
	L194.776,221.021z"/>
<path fill="#264289" d="M194.048,213.06c0,0-142.197,1.196-148.097,22.688c-2.292,8.354,30.647,24.678,50.218,26.262
	c0,0-83.37-5.113-83.376-24.951c-0.007-25.955,181.22-24.728,181.22-24.728L194.048,213.06"/>
<path fill="none" stroke="#264289" stroke-width="2" stroke-linejoin="round" d="M194.048,213.06c0,0-142.197,1.196-148.097,22.688
	c-2.292,8.354,30.647,24.678,50.218,26.262c0,0-83.37-5.113-83.376-24.951c-0.007-25.955,181.22-24.728,181.22-24.728
	L194.048,213.06z"/>
<polyline points="112.02,343.673 119.523,343.673 119.523,345.454 114.042,345.454 114.042,349.58 119.281,349.58 119.281,351.36 
	114.042,351.36 114.042,357.791 112.02,357.791 112.02,343.673 "/>
<path d="M129.981,357.367c-0.729,0.262-1.558,0.668-3.257,0.668c-3.661,0-5.34-2.226-5.34-5.583c0-3.054,1.922-5.219,4.835-5.219
	c3.438,0,4.551,2.509,4.551,5.825h-7.363c0,2.043,1.598,3.438,3.398,3.438c1.254,0,2.711-0.646,3.176-1.032V357.367
	 M128.747,351.644c0-1.578-0.931-2.873-2.569-2.873c-1.861,0-2.629,1.538-2.771,2.873H128.747z M126.542,343.127h2.205l-2.65,2.913
	h-1.355L126.542,343.127z"/>
<rect x="133.561" y="342.622" width="1.901" height="15.169"/>
<g>
	<defs>
		<rect id="SVGID_3_" y="-0.001" width="394.26" height="362.269"/>
	</defs>
	<clipPath id="SVGID_4_">
		<use xlink:href="#SVGID_3_"  overflow="visible"/>
	</clipPath>
	<path clip-path="url(#SVGID_4_)" d="M139.427,348.205c0.95-0.566,2.083-0.972,3.398-0.972c2.953,0,4.146,1.457,4.146,4.268v4.269
		c0,1.173,0.041,1.719,0.081,2.021h-1.78v-1.334h-0.04c-0.445,0.626-1.457,1.578-3.196,1.578c-2.225,0-3.783-0.972-3.783-3.217
		c0-2.589,2.832-3.398,4.794-3.398c0.749,0,1.275,0,2.023,0.04c0-1.778-0.647-2.689-2.548-2.689c-1.073,0-2.226,0.404-2.994,1.052
		L139.427,348.205 M145.07,352.876c-0.404,0-0.809-0.04-1.214-0.04c-1.031,0-3.58,0.162-3.58,1.982c0,1.093,1.052,1.679,1.922,1.679
		c1.881,0,2.872-1.173,2.872-2.71V352.876z"/>
	<path clip-path="url(#SVGID_4_)" d="M159.31,357.347c0,3.136-1.619,4.936-5.32,4.936c-1.092,0-2.043-0.142-3.701-0.708l0.202-1.76
		c1.456,0.668,2.326,0.931,3.721,0.931c2.003,0,3.196-1.355,3.196-3.54v-1.011h-0.04c-0.809,1.071-2.144,1.597-3.459,1.597
		c-2.953,0-4.409-2.407-4.409-5.077c0-2.648,1.497-5.48,4.611-5.48c1.821,0,2.832,0.668,3.398,1.78h0.041v-1.537h1.76V357.347
		 M157.408,352.755c0-2.144-0.991-3.984-3.013-3.984c-1.922,0-2.873,2.084-2.873,3.844c0,1.941,1.093,3.64,2.873,3.64
		C156.174,356.254,157.408,354.676,157.408,352.755z"/>
</g>
<path d="M177.291,357.791h-1.841v-1.638h-0.04c-0.566,1.174-1.942,1.882-3.378,1.882c-2.67,0-3.863-1.66-3.863-4.43v-6.129h1.901
	v5.34c0,2.407,0.526,3.641,2.184,3.681c2.165,0.062,3.136-1.74,3.136-4.248v-4.772h1.901V357.791"/>
<path d="M180.507,347.477h1.78v1.497h0.041c0.728-1.193,1.759-1.74,3.276-1.74c1.193,0,2.387,0.606,2.933,2.003
	c0.708-1.478,2.265-2.003,3.195-2.003c2.629,0,3.581,1.699,3.581,3.943v6.614h-1.902v-6.147c0-1.274-0.304-2.873-1.841-2.873
	c-1.941,0-2.709,1.9-2.709,3.822v5.198h-1.902v-6.147c0-1.274-0.303-2.873-1.84-2.873c-1.942,0-2.711,1.9-2.711,3.822v5.198h-1.901
	V347.477"/>
<path d="M205.364,349.014h-2.426v-1.537h2.426v-0.951c0-2.508,0.647-4.146,3.459-4.146c0.485,0,0.89,0.062,1.274,0.121l-0.081,1.538
	c-0.223-0.081-0.587-0.121-0.91-0.121c-1.639,0-1.841,1.051-1.841,2.447v1.112h2.73v1.537h-2.73v8.777h-1.901V349.014"/>
<path d="M211.999,347.477h1.78v1.598h0.04c0.506-1.073,1.598-1.841,2.69-1.841c0.566,0,0.85,0.061,1.254,0.142v1.699
	c-0.344-0.142-0.729-0.182-1.052-0.182c-1.699,0-2.812,1.617-2.812,4.207v4.691h-1.901V347.477"/>
<path d="M220.353,348.205c0.95-0.566,2.083-0.972,3.398-0.972c2.953,0,4.146,1.457,4.146,4.268v4.269
	c0,1.173,0.041,1.719,0.08,2.021h-1.779v-1.334h-0.041c-0.444,0.626-1.456,1.578-3.195,1.578c-2.225,0-3.782-0.972-3.782-3.217
	c0-2.589,2.831-3.398,4.793-3.398c0.749,0,1.274,0,2.023,0.04c0-1.778-0.647-2.689-2.549-2.689c-1.072,0-2.225,0.404-2.993,1.052
	L220.353,348.205 M225.996,352.876c-0.405,0-0.81-0.04-1.214-0.04c-1.031,0-3.58,0.162-3.58,1.982c0,1.093,1.052,1.679,1.922,1.679
	c1.881,0,2.872-1.173,2.872-2.71V352.876z"/>
<path d="M231.093,347.477h1.78v1.497h0.04c0.729-1.193,1.76-1.74,3.277-1.74c1.193,0,2.387,0.606,2.933,2.003
	c0.708-1.478,2.266-2.003,3.195-2.003c2.63,0,3.58,1.699,3.58,3.943v6.614h-1.901v-6.147c0-1.274-0.303-2.873-1.84-2.873
	c-1.942,0-2.711,1.9-2.711,3.822v5.198h-1.901v-6.147c0-1.274-0.303-2.873-1.84-2.873c-1.942,0-2.711,1.9-2.711,3.822v5.198h-1.901
	V347.477"/>
<path d="M248.326,355.77c0.748,0.484,1.82,0.728,2.366,0.728c0.871,0,1.942-0.364,1.942-1.477c0-1.881-4.471-1.72-4.471-4.611
	c0-2.144,1.598-3.176,3.641-3.176c0.891,0,1.618,0.182,2.367,0.405l-0.162,1.657c-0.425-0.262-1.558-0.525-2.003-0.525
	c-0.971,0-1.82,0.404-1.82,1.255c0,2.103,4.471,1.496,4.471,4.793c0,2.205-1.76,3.217-3.601,3.217c-0.971,0-1.962-0.102-2.832-0.567
	L248.326,355.77"/>
<path d="M257.408,348.225c0.89-0.566,2.083-0.991,3.418-0.991c1.375,0,2.852,0.506,3.56,1.801c0.729-1.295,2.124-1.801,3.58-1.801
	c3.499,0,4.531,2.811,4.531,5.825h-7.302c0,1.9,1.416,3.438,3.378,3.438c1.011,0,2.123-0.486,2.852-1.072v1.922
	c-0.89,0.404-1.941,0.688-2.953,0.688c-1.76,0-3.782-0.567-4.449-2.408h-0.041c-0.425,1.639-2.164,2.408-3.823,2.408
	c-1.921,0-3.984-1.194-3.984-3.297c0-2.854,3.196-3.318,4.976-3.318c1.093,0,1.76,0.121,2.145,0.102
	c0-2.002-1.295-2.751-2.913-2.751c-0.991,0-2.083,0.485-2.872,1.052L257.408,348.225 M260.22,356.497c1.82,0,3.074-1.679,3.074-3.6
	c-0.304,0-0.91-0.062-1.82-0.062c-1.072,0-3.277,0.223-3.277,1.962C258.196,355.951,259.208,356.497,260.22,356.497z
	 M270.475,351.644c0-1.355-0.972-2.873-2.528-2.873c-1.659,0-2.751,1.273-2.751,2.873H270.475z"/>
<polyline points="274.944,342.622 276.846,342.622 276.846,351.663 280.992,347.477 283.581,347.477 278.787,352.047 
	284.188,357.791 281.457,357.791 276.846,352.492 276.846,357.791 274.944,357.791 274.944,342.622 "/>
<path d="M286.189,347.477h1.841v1.639h0.04c0.566-1.174,1.941-1.882,3.378-1.882c2.67,0,3.864,1.659,3.864,4.43v6.128h-1.902v-5.339
	c0-2.408-0.525-3.641-2.185-3.682c-2.163-0.062-3.135,1.739-3.135,4.248v4.772h-1.901V347.477"/>
<path d="M299.033,348.205c0.95-0.566,2.083-0.972,3.398-0.972c2.953,0,4.146,1.457,4.146,4.268v4.269c0,1.173,0.04,1.719,0.08,2.021
	h-1.779v-1.334h-0.041c-0.444,0.626-1.456,1.578-3.195,1.578c-2.225,0-3.782-0.972-3.782-3.217c0-2.589,2.831-3.398,4.793-3.398
	c0.749,0,1.274,0,2.023,0.04c0-1.778-0.647-2.689-2.549-2.689c-1.072,0-2.225,0.404-2.993,1.052L299.033,348.205 M304.677,352.876
	c-0.404,0-0.81-0.04-1.214-0.04c-1.031,0-3.58,0.162-3.58,1.982c0,1.093,1.052,1.679,1.922,1.679c1.881,0,2.872-1.173,2.872-2.71
	V352.876z"/>
<path d="M314.648,355.77c0.748,0.484,1.82,0.728,2.366,0.728c0.87,0,1.942-0.364,1.942-1.477c0-1.881-4.471-1.72-4.471-4.611
	c0-2.144,1.598-3.176,3.641-3.176c0.891,0,1.618,0.182,2.367,0.405l-0.162,1.657c-0.425-0.262-1.558-0.525-2.003-0.525
	c-0.971,0-1.82,0.404-1.82,1.255c0,2.103,4.472,1.496,4.472,4.793c0,2.205-1.761,3.217-3.602,3.217
	c-0.971,0-1.962-0.102-2.832-0.567L314.648,355.77"/>
<g>
	<defs>
		<rect id="SVGID_5_" y="-0.001" width="394.26" height="362.269"/>
	</defs>
	<clipPath id="SVGID_6_">
		<use xlink:href="#SVGID_5_"  overflow="visible"/>
	</clipPath>
	<path clip-path="url(#SVGID_6_)" d="M328.767,349.014h-2.73v5.644c0,1.193,0.728,1.84,1.598,1.84c0.587,0,1.013-0.182,1.295-0.364
		v1.618c-0.425,0.122-1.012,0.284-1.618,0.284c-1.962,0-3.176-0.931-3.176-2.994v-6.027h-2.326v-1.537h2.326v-2.388l1.901-0.605
		v2.993h2.73V349.014"/>
	<path clip-path="url(#SVGID_6_)" d="M329.272,360.563c0.242,0.04,0.404,0.061,0.769,0.061c0.89,0,1.355-0.85,1.355-2.185v-10.963
		h1.9v10.68c0,1.496-0.061,4.126-2.912,4.126c-0.404,0-0.91-0.021-1.173-0.081L329.272,360.563 M333.419,345.17h-2.145v-2.144h2.145
		V345.17z"/>
</g>
<path d="M341.348,347.233c3.135,0,5.238,2.266,5.238,5.399c0,2.953-2.144,5.402-5.238,5.402c-3.115,0-5.259-2.449-5.259-5.402
	C336.089,349.499,338.192,347.233,341.348,347.233 M341.348,356.497c2.225,0,3.217-2.022,3.217-3.864
	c0-1.962-1.194-3.862-3.217-3.862c-2.043,0-3.236,1.9-3.236,3.862C338.111,354.475,339.103,356.497,341.348,356.497z
	 M341.812,343.127h2.205l-2.649,2.913h-1.355L341.812,343.127z"/>
<path d="M349.135,347.477h1.78v1.598h0.04c0.506-1.073,1.598-1.841,2.691-1.841c0.565,0,0.849,0.061,1.253,0.142v1.699
	c-0.344-0.142-0.729-0.182-1.052-0.182c-1.699,0-2.812,1.617-2.812,4.207v4.691h-1.901V347.477"/>
<path d="M357.003,347.477h1.841v1.639h0.04c0.566-1.174,1.942-1.882,3.378-1.882c2.67,0,3.863,1.659,3.863,4.43v6.128h-1.901v-5.339
	c0-2.408-0.525-3.641-2.185-3.682c-2.164-0.062-3.135,1.739-3.135,4.248v4.772h-1.901V347.477"/>
<path d="M378.483,357.791h-1.841v-1.638h-0.04c-0.566,1.174-1.942,1.882-3.378,1.882c-2.67,0-3.863-1.66-3.863-4.43v-6.129h1.901
	v5.34c0,2.407,0.525,3.641,2.185,3.681c2.164,0.062,3.135-1.74,3.135-4.248v-4.772h1.901V357.791"/>
<path d="M381.72,347.477h1.841v1.639h0.04c0.566-1.174,1.942-1.882,3.378-1.882c2.67,0,3.863,1.659,3.863,4.43v6.128h-1.901v-5.339
	c0-2.408-0.525-3.641-2.185-3.682c-2.164-0.062-3.135,1.739-3.135,4.248v4.772h-1.901V347.477"/>
</svg>
