<?xml version="1.0" encoding="utf-8"?>
<!-- Generator: Adobe Illustrator 17.0.0, SVG Export Plug-In . SVG Version: 6.00 Build 0)  -->
<!DOCTYPE svg PUBLIC "-//W3C//DTD SVG 1.1//EN" "http://www.w3.org/Graphics/SVG/1.1/DTD/svg11.dtd">
<svg version="1.1" xmlns="http://www.w3.org/2000/svg" xmlns:xlink="http://www.w3.org/1999/xlink" x="0px" y="0px" width="320px"
	 height="139px" viewBox="0 0 320 139" enable-background="new 0 0 320 139" xml:space="preserve">
<g id="Layer_2">
</g>
<g id="Layer_1">
	<g>
		<path fill="#FFFFFF" d="M174.016,43.458C169.762,32.829,163.922,24,159.743,10h-0.03c-4.167,14-10.004,22.801-14.271,33.458
			C139.177,59.122,152.057,71,159.713,71h0.03C167.403,71,180.281,59.122,174.016,43.458z M156.297,61.612
			c-0.483,0.403-1.477,0.844-2.952,0.572c-1.958-0.356-3.378-2.868-3.684-3.546c-0.788-1.732-1.715-4.987-1.066-9.439
			c0.657-4.454,3.19-9.607,3.19-9.607l1.832-0.062c0.085,2.195-0.294,6.205-0.138,8.134c0.433,5.447,2.016,7.692,2.815,8.982
			C157.568,58.717,157.075,60.982,156.297,61.612z"/>
		<path fill="#FFFFFF" d="M205.369,109.533c-4.175-4.703-43.254-4.533-44.917-4.533h-1.617c-1.633,0-40.033-0.17-44.196,4.52
			c-0.329,0.371-0.471,0.601-0.422,1.021c0.626,5.363,20.205,6.7,22.436,6.844l0.052-0.758c-4.33-0.35-11.842-3.769-12.964-5.885
			c-0.186-0.35-0.095-0.522-0.065-0.575c2.005-3.55,18.449-4.333,33.17-4.333c1.258,0,4.352-0.005,5.638-0.005
			c15.049,0,31.844,1.021,33.849,4.571c0.03,0.053,0.12,0.091-0.066,0.442c-1.124,2.117-8.639,5.453-12.968,5.803l0.052,0.685
			c0.054-0.004,5.457-0.376,10.865-1.369c7.405-1.36,11.298-3.073,11.571-5.413C205.835,110.133,205.694,109.899,205.369,109.533z"
			/>
		<path fill="#FFFFFF" d="M251.401,108.698C243.454,99.684,163.589,99,160.19,99h-1.099c-3.367,0-82.55,0.684-90.484,9.687
			c-0.532,0.604-0.763,1.111-0.685,1.776c1.184,10.13,40.762,12.738,42.446,12.847l0.052-0.749
			c-8.32-0.671-22.782-7.26-24.958-11.359c-0.295-0.556-0.335-0.783-0.121-1.161C91.06,99.917,158.431,100,159.111,100h1.064
			c0.687,0,68.774-0.092,74.49,10.033c0.214,0.378,0.173,0.714-0.123,1.27c-2.178,4.099-16.642,10.612-24.961,11.283l0.052,0.686
			c1.685-0.109,41.267-2.664,42.451-12.794C252.16,109.817,251.931,109.298,251.401,108.698z"/>
		<path fill="#FFFFFF" d="M234.139,95.069C204.612,92.755,172.579,93,163.465,93c-1.771,0-5.151,0-6.924,0
			c-9.115,0-41.149-0.035-70.679,2.28c-37.773,2.961-56.924,8.104-56.922,15.5c0.004,14.401,57.684,18.05,60.139,18.201l0.051-0.742
			c-11.621-0.941-30.544-9.445-34.911-15.678c-0.733-1.047-1-1.378-0.792-2.136C57.54,95.445,158.292,95,159.306,95h1.386
			c1.017,0,101.774,0.438,105.885,15.418c0.208,0.759-0.058,1.378-0.792,2.424c-4.367,6.233-23.289,14.577-34.909,15.517l0.05,0.641
			c2.456-0.151,60.133-3.888,60.133-18.289C291.064,103.316,271.913,98.03,234.139,95.069z"/>
	</g>
</g>
</svg>
