<?xml version="1.0" encoding="utf-8"?>
<!-- Generator: Adobe Illustrator 17.0.0, SVG Export Plug-In . SVG Version: 6.00 Build 0)  -->
<!DOCTYPE svg PUBLIC "-//W3C//DTD SVG 1.1//EN" "http://www.w3.org/Graphics/SVG/1.1/DTD/svg11.dtd">
<svg version="1.1" id="Layer_1" xmlns="http://www.w3.org/2000/svg" xmlns:xlink="http://www.w3.org/1999/xlink" x="0px" y="0px"
	 width="119.458px" height="50px" viewBox="0 0 119.458 50" enable-background="new 0 0 119.458 50" xml:space="preserve">
<g>
	<path fill="#FFFFFF" d="M64.99,15.641C63.348,11.54,61.095,8.259,59.482,3h-0.012c-1.608,5.259-3.86,8.529-5.507,12.641
		C51.547,21.685,56.516,26,59.471,26h0.012C62.438,26,67.407,21.685,64.99,15.641z M58.153,22.833
		c-0.187,0.156-0.57,0.326-1.139,0.221c-0.756-0.138-1.304-1.107-1.422-1.368c-0.304-0.668-0.662-1.924-0.411-3.642
		c0.254-1.719,1.231-3.707,1.231-3.707l0.707-0.024c0.033,0.847-0.113,2.394-0.053,3.139c0.167,2.102,0.778,2.968,1.086,3.466
		C58.643,21.716,58.453,22.59,58.153,22.833z"/>
	<path fill="#FFFFFF" d="M77.088,38.646C75.477,36.831,60.398,37,59.756,37h-0.624c-0.63,0-15.447-0.169-17.053,1.641
		c-0.127,0.143-0.182,0.18-0.163,0.342c0.241,2.07,7.796,2.559,8.657,2.615l0.02-0.305c-1.671-0.135-4.569-1.461-5.002-2.277
		c-0.072-0.135-0.037-0.205-0.025-0.225c0.774-1.37,7.119-1.674,12.799-1.674c0.486,0,1.679-0.003,2.175-0.003
		c5.807,0,12.287,0.394,13.061,1.763c0.012,0.02,0.046,0.035-0.025,0.17c-0.434,0.817-3.333,2.104-5.004,2.239l0.02,0.264
		c0.021-0.001,2.106-0.145,4.193-0.528c2.857-0.525,4.36-1.134,4.465-2.037C77.267,38.826,77.213,38.787,77.088,38.646z"/>
	<path fill="#FFFFFF" d="M94.85,38.481C91.783,35.003,60.966,35,59.655,35h-0.424c-1.299,0-31.853,0.003-34.914,3.477
		c-0.205,0.233-0.294,0.298-0.264,0.555c0.457,3.909,15.729,4.85,16.378,4.892l0.02-0.322c-3.21-0.259-8.791-2.818-9.63-4.399
		c-0.114-0.215-0.129-0.242-0.047-0.388C32.98,34.908,58.976,35,59.238,35h0.411c0.265,0,26.537-0.103,28.743,3.803
		c0.082,0.146,0.067,0.242-0.047,0.456c-0.84,1.582-6.422,4.078-9.632,4.337l0.02,0.256c0.65-0.042,15.923-0.902,16.38-4.811
		C95.143,38.787,95.054,38.713,94.85,38.481z"/>
	<path fill="#FFFFFF" d="M88.189,33.38C76.795,32.487,64.435,33,60.918,33c-0.683,0-1.987,0-2.672,0
		c-3.517,0-15.878-0.432-27.272,0.461C16.399,34.604,9.01,36.379,9.01,39.233c0.002,5.557,22.258,6.86,23.205,6.918l0.02-0.339
		c-4.484-0.363-11.786-3.671-13.471-6.076c-0.283-0.404-0.386-0.512-0.305-0.805C20.046,33.152,58.922,33,59.314,33h0.535
		c0.393,0,39.271,0.136,40.857,5.917c0.08,0.293-0.022,0.515-0.305,0.919c-1.685,2.405-8.986,5.616-13.47,5.979l0.019,0.243
		c0.948-0.058,23.203-1.293,23.203-6.85C110.154,36.355,102.764,34.522,88.189,33.38z"/>
</g>
</svg>
