<?xml version="1.0" encoding="utf-8"?>
<!-- Generator: Adobe Illustrator 16.0.0, SVG Export Plug-In . SVG Version: 6.00 Build 0)  -->
<!DOCTYPE svg PUBLIC "-//W3C//DTD SVG 1.1//EN" "http://www.w3.org/Graphics/SVG/1.1/DTD/svg11.dtd">
<svg version="1.1" id="Layer_1" xmlns="http://www.w3.org/2000/svg" xmlns:xlink="http://www.w3.org/1999/xlink" x="0px" y="0px"
	 width="119.458px" height="50px" viewBox="0 0 119.458 50" enable-background="new 0 0 119.458 50" xml:space="preserve">
<g>
	<path fill="#FFFFFF" d="M94.892,38.237c0-2.788-15.847-5.048-35.395-5.048c-19.547,0-35.394,2.26-35.394,5.048
		c0,2.349,11.258,4.325,26.5,4.888c-11.781-0.624-20.329-2.489-20.329-4.692c0-2.712,12.989-4.914,29.012-4.914
		s29.012,2.202,29.012,4.914c0,2.261-8.986,4.16-21.229,4.735C82.979,42.674,94.892,40.654,94.892,38.237"/>
	<path fill="#FFFFFF" d="M76.737,38.195c0-1.359-7.719-2.459-17.239-2.459s-17.239,1.1-17.239,2.459
		c0,1.146,5.483,2.107,12.907,2.383c-5.738-0.307-9.902-1.214-9.902-2.287c0-1.321,6.328-2.394,14.133-2.394
		c7.804,0,14.13,1.072,14.13,2.394c0,1.1-4.378,2.026-10.34,2.307C70.934,40.355,76.737,39.375,76.737,38.195"/>
	<g>
		<path fill="#FFFFFF" d="M109.987,38.41c0-4.089-22.604-7.402-50.489-7.402c-27.884,0-50.488,3.313-50.488,7.402
			c0,3.443,16.058,6.34,37.799,7.163c-16.804-0.916-28.995-3.646-28.995-6.876c0-3.979,18.528-7.205,41.385-7.205
			c22.855,0,41.382,3.226,41.382,7.205c0,3.31-12.818,6.099-30.281,6.941C92.992,44.914,109.987,41.953,109.987,38.41"/>
		<path fill="#FFFFFF" d="M56.434,23.693c-1.826-1.444-2.67-3.787-2.078-5.516c0.004,1.649,1.069,3.643,2.846,5.049
			c1.053,0.833,2.177,1.319,3.196,1.452C59.229,25.045,57.74,24.727,56.434,23.693 M66.017,17.173
			c-0.092-0.575-0.237-1.125-0.433-1.644l-0.753-1.517L59.498,3.266l-5.334,10.748l-0.752,1.517
			c-0.193,0.519-0.341,1.069-0.433,1.644c-0.074,0.461-0.113,0.938-0.113,1.425c0,4.26,2.971,7.713,6.632,7.713
			c3.662,0,6.633-3.454,6.633-7.713C66.13,18.112,66.09,17.635,66.017,17.173"/>
	</g>
</g>
</svg>
