<svg xmlns="http://www.w3.org/2000/svg" xmlns:xlink="http://www.w3.org/1999/xlink" viewBox="0 0 320 320">
<g id="Layer_2">
	<rect fill="#4A85A1" width="320" height="320"/>
	<rect x="507" y="351" fill="#2E1F68" width="92" height="80"/>
</g>
<g id="Layer_5">
	<polygon fill="#2E1F68" points="224.457,37 95.543,37 160.614,282.184 	"/>
	<g>
		<g>
			<path fill="#FFFFFF" d="M84.421,149.752h-7.112v-38.215c2.123,0.036,4.493,0.036,7.112,0V149.752z M92.012,101.559l-7.75,7.855
				h-6.369l4.565-7.855H92.012z"/>
			<path fill="#FFFFFF" d="M108.518,138.977c0,3.503-0.832,6.317-2.495,8.439c-1.84,2.37-4.458,3.557-7.855,3.557
				c-3.22,0-5.821-1.381-7.802-4.141c-1.628-2.336-2.601-5.254-2.919-8.758c2.088-0.424,3.414-0.689,3.981-0.796
				c1.556-0.283,2.919-0.442,4.087-0.477c-0.071,0.389-0.106,0.796-0.106,1.22c0,1.098,0.194,2.124,0.584,3.079
				c0.531,1.239,1.274,1.858,2.23,1.858c1.344,0,2.016-0.902,2.016-2.707c0-2.193-1.061-4.458-3.184-6.794
				c-1.982-2.122-3.963-4.246-5.945-6.368c-2.123-2.831-3.185-5.998-3.185-9.501c0-3.22,0.92-5.839,2.76-7.855
				c1.84-2.017,4.387-3.025,7.643-3.025c2.795,0,5.13,1.239,7.006,3.715c1.734,2.335,2.583,4.954,2.548,7.856
				c-1.742,0.354-4.301,0.743-7.677,1.167c-0.249-3.291-1.103-4.936-2.559-4.936c-1.209,0-1.813,1.08-1.813,3.238
				c0,1.628,1.083,3.592,3.251,5.891c3.801,3.927,5.845,6.069,6.129,6.422C107.415,132.927,108.518,135.9,108.518,138.977z"/>
			<path fill="#FFFFFF" d="M127.996,149.752h-17.091v-42.355l8.121-0.106v34.605l8.97,0.212V149.752z"/>
			<path fill="#FFFFFF" d="M147.9,143.861c0,0.708-0.018,1.698-0.053,2.972c-0.072,1.415-0.107,2.388-0.107,2.919h-16.719v-42.461
				h16.401v8.333c-3.601,0.106-6.467,0.159-8.599,0.159c0.07,2.301,0.087,5.114,0.053,8.439c3.584,0,5.672,0.018,6.264,0.053
				c0.035,2.372,0.053,5.025,0.053,7.962h-6.37v9.447h8.917C147.847,142.393,147.9,143.118,147.9,143.861z"/>
			<path fill="#FFFFFF" d="M174.437,149.752h-7.349c-2.998-8.056-5.201-14.107-6.61-18.152c0,2.725,0,5.875,0,9.448
				c0,3.113-0.018,6.015-0.053,8.704c-3.787,0-6.67-0.018-8.652-0.053l-0.372-42.408l8.811-0.053
				c1.239,3.504,3.167,8.899,5.785,16.189c-0.177-5.06-0.266-9.182-0.266-12.367c0-1.451,0.018-2.725,0.055-3.822h8.65V149.752z"/>
			<path fill="#FFFFFF" d="M197.631,138.977c0,3.503-0.832,6.317-2.495,8.439c-1.841,2.37-4.458,3.557-7.854,3.557
				c-3.221,0-5.822-1.381-7.803-4.141c-1.629-2.336-2.601-5.254-2.919-8.758c2.088-0.424,3.414-0.689,3.981-0.796
				c1.557-0.283,2.918-0.442,4.087-0.477c-0.071,0.389-0.107,0.796-0.107,1.22c0,1.098,0.194,2.124,0.585,3.079
				c0.53,1.239,1.273,1.858,2.229,1.858c1.345,0,2.016-0.902,2.016-2.707c0-2.193-1.061-4.458-3.183-6.794
				c-1.982-2.122-3.964-4.246-5.945-6.368c-2.122-2.831-3.184-5.998-3.184-9.501c0-3.22,0.919-5.839,2.759-7.855
				c1.841-2.017,4.389-3.025,7.643-3.025c2.795,0,5.13,1.239,7.006,3.715c1.734,2.335,2.584,4.954,2.548,7.856
				c-1.741,0.354-4.3,0.743-7.677,1.167c-0.249-3.291-1.103-4.936-2.557-4.936c-1.21,0-1.813,1.08-1.813,3.238
				c0,1.628,1.082,3.592,3.251,5.891c3.801,3.927,5.843,6.069,6.129,6.422C196.529,132.927,197.631,135.9,197.631,138.977z"/>
			<path fill="#FFFFFF" d="M221.887,149.7l-8.931,0.053c-0.5-1.627-1.855-7.059-4.065-16.295l-1.177,2.124v14.171h-7.802
				l-0.319-42.461c2.061,0.035,4.767,0.035,8.12,0v13.11c0.284-1.487,0.942-3.733,1.973-6.741c1.067-3.149,1.937-5.272,2.613-6.369
				h8.207c-1.698,5.166-3.715,10.35-6.051,15.552L221.887,149.7z"/>
			<path fill="#FFFFFF" d="M245.186,149.752l-2.38-0.004c-1.234,0-3.068,0-5.5,0l-1.095-8.436h-3.767l-1.751,8.439h-7.479
				l7.218-42.461h8.704L245.186,149.752z M235.314,133.086l-1.008-12.313c-0.248,2.737-0.672,6.841-1.274,12.313H235.314z"/>
			<path fill="#FFFFFF" d="M56.021,209.884h-2.388c-1.239,0-3.078,0-5.52,0l-1.062-7.59h-3.768l-1.751,7.59h-7.483
				c0.106-0.566,1.079-5.661,2.919-15.286c0.07-0.319,0.69-4.157,1.858-11.518c0.778-4.634,1.592-8.439,2.442-11.411h8.704
				L56.021,209.884z M56.658,161.425l-7.749,7.856h-6.37l4.565-7.856H56.658z M46.149,194.863l-0.796-12.791
				c-0.248,1.451-0.443,3.608-0.584,6.475c-0.142,2.867-0.301,4.972-0.478,6.316H46.149z"/>
			<path fill="#FFFFFF" d="M81.974,209.884h-7.349c-2.997-8.056-5.2-14.107-6.61-18.152c0,2.725,0,5.875,0,9.448
				c0,3.113-0.018,6.015-0.053,8.704c-3.787,0-6.67-0.018-8.652-0.053l-0.372-42.408l8.811-0.053
				c1.239,3.503,3.167,8.899,5.785,16.188c-0.177-5.06-0.265-9.182-0.265-12.368c0-1.45,0.017-2.724,0.054-3.821h8.651V209.884z"/>
			<path fill="#FFFFFF" d="M120.03,203.993c0,0.743-0.018,1.734-0.053,2.972c-0.071,1.415-0.106,2.388-0.106,2.919h-15.605
				c-0.531,0-1.451,0-2.76,0c-1.168,0-0.861,0-1.533,0l0.165-8.439h-3.768l-1.751,8.439h-9.938
				c0.141-0.814,11.278-39.17,12.127-42.461h3.796h2.548h16.4v8.333c-3.657,0.107-6.542,0.159-8.651,0.159
				c0.07,2.301,0.087,5.114,0.052,8.439c3.58,0,5.686,0.018,6.318,0.053c0.035,2.336,0.052,4.99,0.052,7.962h-6.422v9.447h9.076
				C120.012,202.525,120.03,203.25,120.03,203.993z M101.691,193.218l0.113-13.162c-0.212,1.486-4.248,11.783-4.425,13.162H101.691z
				"/>
			<path fill="#FFFFFF" d="M142.375,197.358c0,4.317,0,8.492,0,12.526h-6.21v-1.008c-1.026,0.672-2.265,1.008-3.715,1.008
				c-3.893,0-6.6-1.536-8.121-4.611c-1.097-2.227-1.645-5.496-1.645-9.808c0-0.813,0.088-6.024,0.264-15.638
				c0.176-8.871,3.608-13.306,10.294-13.306c3.203,0,5.597,1.433,7.18,4.299c1.302,2.265,1.953,5.148,1.953,8.653
				c0,0.92,0,1.787,0,2.601h-7.696c0.106-0.708,0.159-1.415,0.159-2.124c0-3.75-0.681-5.625-2.043-5.625
				c-1.112,0-1.756,0.653-1.935,1.959c-0.179,1.449-0.269,6.428-0.269,14.939c0,4.415,0.125,7.452,0.377,9.112
				c0.179,1.237,1.003,1.854,2.474,1.854c0.215,0,0.475-0.192,0.78-0.579c0.304-0.386,0.457-0.684,0.457-0.895v-5.425
				c-0.886-0.035-1.753-0.035-2.601,0c0-1.062,0-3.61,0-7.643c1.209,0.036,4.641,0.072,10.297,0.107V197.358z"/>
			<path fill="#FFFFFF" d="M156.546,167.423v32.058c0,6.9-2.212,10.369-6.634,10.403h-1.805c-0.389,0-0.849-0.053-1.38-0.159
				c-0.672-0.212-1.008-0.459-1.008-0.743l-0.159-7.325c0.389,0.107,0.743,0.159,1.061,0.159c0.778,0,1.442-0.212,1.991-0.636
				c0.548-0.425,0.823-0.991,0.823-1.699c0-3.855-0.089-9.199-0.265-16.029c-0.212-7.537-0.337-12.879-0.372-16.029H156.546z"/>
			<path fill="#FFFFFF" d="M177.826,190.352c0,0.566,0.018,1.486,0.054,2.76s0.054,2.265,0.054,2.972
				c0,4.458-0.549,7.785-1.644,9.978c-1.558,3.115-4.389,4.671-8.493,4.671c-2.619,0-4.795-0.92-6.528-2.76
				c-1.593-1.699-2.62-3.892-3.079-6.582c-0.071-0.566-0.107-3.113-0.107-7.643c0-2.936,0.019-7.333,0.053-13.19
				c0.035-5.855,0.053-10.234,0.053-13.136h7.961v33.331c0,1.593,0.585,2.388,1.752,2.388s1.751-0.76,1.751-2.282v-33.438h8.065
				L177.826,190.352z"/>
			<path fill="#FFFFFF" d="M222.842,194.704c0,4.707-0.493,8.28-1.478,10.722c-1.55,3.715-4.295,5.573-8.236,5.573
				c-1.443,0-2.956-0.442-4.54-1.327c-3.485-1.946-5.226-6.669-5.226-14.171c0-0.778,0-1.876,0-3.291s0-2.406,0-2.972
				c0-0.672,0-1.831,0-3.477c0-1.645,0-2.928,0-3.848c0-4.6,0.545-8.068,1.636-10.403c1.512-3.255,4.223-4.882,8.13-4.882
				c3.835,0,6.51,1.486,8.025,4.458c1.125,2.194,1.689,5.413,1.689,9.659V194.704z M214.934,200.011v-22.716
				c0-1.946-0.611-2.919-1.834-2.919c-1.361,0-2.041,1.115-2.041,3.344v22.292c0,2.229,0.732,3.344,2.199,3.344
				C214.376,203.355,214.934,202.24,214.934,200.011z"/>
			<path fill="#FFFFFF" d="M245.294,197.358c0,4.317,0,8.492,0,12.526h-6.21v-1.008c-1.027,0.672-2.265,1.008-3.715,1.008
				c-3.894,0-6.6-1.536-8.122-4.611c-1.097-2.227-1.644-5.496-1.644-9.808c0-0.813,0.087-6.024,0.264-15.638
				c0.175-8.871,3.607-13.306,10.294-13.306c3.202,0,5.595,1.433,7.18,4.299c1.303,2.265,1.953,5.148,1.953,8.653
				c0,0.92,0,1.787,0,2.601h-7.696c0.107-0.708,0.159-1.415,0.159-2.124c0-3.75-0.681-5.625-2.042-5.625
				c-1.112,0-1.757,0.653-1.935,1.959c-0.179,1.449-0.27,6.428-0.27,14.939c0,4.415,0.126,7.452,0.377,9.112
				c0.179,1.237,1.003,1.854,2.474,1.854c0.215,0,0.475-0.192,0.78-0.579c0.304-0.386,0.457-0.684,0.457-0.895v-5.425
				c-0.886-0.035-1.753-0.035-2.601,0c0-1.062,0-3.61,0-7.643c1.209,0.036,4.64,0.072,10.297,0.107V197.358z"/>
			<path fill="#FFFFFF" d="M257.394,209.884h-7.113v-42.461c2.124,0.036,4.493,0.036,7.113,0V209.884z"/>
			<path fill="#FFFFFF" d="M284.993,209.884h-7.35c-2.997-8.056-5.2-14.107-6.609-18.152c0,2.725,0,5.875,0,9.448
				c0,3.113-0.019,6.015-0.054,8.704c-3.786,0-6.67-0.018-8.651-0.053l-0.372-42.408l8.811-0.053
				c1.238,3.503,3.166,8.899,5.786,16.188c-0.177-5.06-0.266-9.182-0.266-12.368c0-1.45,0.018-2.724,0.054-3.821h8.651V209.884z"/>
		</g>
		<polygon fill="#FFFFFF" points="191.677,216.583 203.851,167 180.034,167 		"/>
		<g>
			<path fill="#FFFFFF" d="M34,217h152 M196,217h90"/>
			<path fill="#FFFFFF" d="M285.571,218.441h-89.584v-2.454h89.584V218.441z M186.17,218.441H34v-2.454h152.17V218.441z"/>
		</g>
	</g>
	<polygon fill="#4A85A1" points="518.457,270 471.667,270 495.284,358.991 	"/>
</g>
</svg>
