<?xml version="1.0" encoding="utf-8"?>
<!-- Generator: Adobe Illustrator 17.0.0, SVG Export Plug-In . SVG Version: 6.00 Build 0)  -->
<!DOCTYPE svg PUBLIC "-//W3C//DTD SVG 1.1//EN" "http://www.w3.org/Graphics/SVG/1.1/DTD/svg11.dtd">
<svg version="1.1" xmlns="http://www.w3.org/2000/svg" xmlns:xlink="http://www.w3.org/1999/xlink" x="0px" y="0px" width="320px"
	 height="320px" viewBox="0 0 320 320" enable-background="new 0 0 320 320" xml:space="preserve">
<g id="Layer_2">
	<rect fill="#292368" width="320" height="320"/>
</g>
<g id="Layer_1">
	<g>
		<path fill="#FFFFFF" d="M173.456,95.458C169.202,84.829,163.362,76,159.183,62h-0.03c-4.167,14-10.004,22.801-14.271,33.458
			C138.617,111.122,151.497,123,159.153,123h0.03C166.843,123,179.721,111.122,173.456,95.458z M155.737,113.613
			c-0.483,0.403-1.477,0.844-2.952,0.572c-1.958-0.356-3.378-2.868-3.684-3.546c-0.788-1.732-1.715-4.987-1.066-9.439
			c0.657-4.454,3.19-9.607,3.19-9.607l1.832-0.062c0.085,2.195-0.294,6.205-0.138,8.134c0.433,5.447,2.016,7.692,2.815,8.982
			C157.008,110.718,156.515,112.983,155.737,113.613z"/>
		<path fill="#FFFFFF" d="M204.809,161.533c-4.175-4.703-43.254-4.533-44.917-4.533h-1.617c-1.633,0-40.033-0.17-44.196,4.521
			c-0.329,0.371-0.471,0.601-0.422,1.021c0.626,5.363,20.205,6.7,22.436,6.844l0.052-0.758c-4.33-0.35-11.842-3.769-12.964-5.885
			c-0.186-0.35-0.095-0.522-0.065-0.574c2.005-3.55,18.449-4.333,33.17-4.333c1.258,0,4.352-0.005,5.638-0.005
			c15.049,0,31.844,1.021,33.849,4.571c0.03,0.053,0.12,0.091-0.066,0.442c-1.124,2.117-8.639,5.453-12.968,5.803l0.052,0.685
			c0.054-0.004,5.457-0.376,10.865-1.368c7.405-1.36,11.298-3.073,11.571-5.413C205.275,162.134,205.134,161.899,204.809,161.533z"
			/>
		<path fill="#FFFFFF" d="M250.841,160.698c-7.947-9.013-87.812-9.698-91.211-9.698h-1.099c-3.367,0-82.55,0.684-90.484,9.687
			c-0.532,0.604-0.763,1.112-0.685,1.776c1.184,10.13,40.762,12.738,42.446,12.847l0.052-0.749
			c-8.32-0.671-22.782-7.26-24.958-11.359c-0.295-0.556-0.335-0.783-0.121-1.161C90.5,151.917,157.871,152,158.551,152h1.064
			c0.687,0,68.774-0.091,74.49,10.033c0.214,0.378,0.173,0.714-0.123,1.271c-2.178,4.099-16.642,10.612-24.961,11.283l0.052,0.686
			c1.685-0.109,41.267-2.664,42.451-12.794C251.6,161.817,251.371,161.299,250.841,160.698z"/>
		<path fill="#FFFFFF" d="M233.579,147.07c-29.528-2.314-61.56-2.07-70.674-2.07c-1.771,0-5.151,0-6.924,0
			c-9.115,0-41.149-0.035-70.679,2.28c-37.773,2.961-56.924,8.104-56.922,15.5c0.004,14.401,57.684,18.05,60.139,18.201l0.051-0.742
			c-11.621-0.941-30.544-9.445-34.911-15.678c-0.733-1.047-1-1.378-0.792-2.136C56.98,147.445,157.732,147,158.746,147h1.386
			c1.017,0,101.774,0.438,105.885,15.418c0.208,0.759-0.058,1.378-0.792,2.425c-4.367,6.233-23.289,14.577-34.909,15.517l0.05,0.641
			c2.456-0.151,60.133-3.889,60.133-18.289C290.504,155.316,271.353,150.03,233.579,147.07z"/>
		<g>
			<path fill="#FFFFFF" d="M59.168,212.829c-0.209-1.82-1.197-3.276-3.276-3.276c-1.508,0-2.86,0.78-2.86,2.704
				c0,1.821,1.82,2.912,4.42,4.862c2.757,2.054,3.641,3.381,3.641,5.538c0,3.095-3.172,4.811-6.293,4.811
				c-1.664,0-3.094-0.312-4.446-0.832c-0.104-0.053-0.182-0.157-0.182-0.365v-3.744h0.676c0.286,2.886,2.184,4.029,4.186,4.029
				c1.846,0,3.354-1.403,3.354-3.302c0-1.689-0.91-3.068-4.81-5.642c-1.404-0.937-3.146-1.95-3.146-4.784
				c0-2.34,2.6-4.186,5.59-4.186c1.118,0,2.6,0.13,3.64,0.494c0.156,0.053,0.182,0.156,0.182,0.286v3.406H59.168"/>
			<path fill="#FFFFFF" d="M79.734,223.907c0,2.418-0.104,2.288,2.236,2.574v0.676h-6.994v-0.676
				c2.34-0.286,2.236-0.156,2.236-2.574v-14.119h-2.34c-2.262,0-2.782,1.43-3.641,3.145h-0.649l0.702-3.978h14.378l0.702,3.978
				h-0.65c-0.858-1.716-1.378-3.145-3.64-3.145h-2.34V223.907"/>
			<path fill="#FFFFFF" d="M100.613,223.725c0,5.433-2.496,6.837-3.12,7.15c-0.494,0.26-1.976,0.936-2.704,0.91
				c-0.312,0-0.754,0-1.014-0.313l-1.04-1.195c-0.156-0.182,0.026-0.364,0.104-0.443l0.494-0.546
				c0.104-0.104,0.312-0.025,0.468,0.051l0.884,0.468c0.624,0.34,1.066,0.677,1.664,0.677c1.144,0,1.742-1.821,1.742-6.397v-11.882
				c0-2.418,0.104-2.289-2.237-2.575v-0.676h6.995v0.676c-2.34,0.286-2.237,0.157-2.237,2.575V223.725"/>
			<path fill="#FFFFFF" d="M113.536,218.394c0-5.616,4.368-9.751,9.777-9.751c5.643,0,8.919,4.862,8.919,8.867
				c0,5.487-4.109,9.959-9.855,9.959C117.41,227.468,113.536,223.438,113.536,218.394 M129.267,218.29
				c0-6.214-3.354-8.736-6.526-8.736c-4.42,0-6.24,3.952-6.24,7.488c0,6.292,3.224,9.516,6.578,9.516
				C127.915,226.558,129.267,221.774,129.267,218.29z M121.597,207.603h-1.066l3.615-3.641c0.363-0.468,1.091-0.883,1.56-0.883
				c0.52,0,0.858,0.389,0.858,0.987c0,0.494-0.728,0.91-1.196,1.196L121.597,207.603z"/>
			<path fill="#FFFFFF" d="M142.917,208.955h7.567c2.626,0,5.252,1.378,5.252,4.421c0,2.678-1.638,4.524-3.64,5.304l2.548,3.875
				c1.275,1.924,2.756,3.717,3.666,4.263v0.339h-2.678c-1.534,0-2.366-2.834-5.512-8.06h-2.444v4.811
				c0,2.418-0.105,2.288,2.236,2.574v0.676h-6.994v-0.676c2.34-0.286,2.236-0.156,2.236-2.574v-11.701
				c0-2.418,0.104-2.289-2.236-2.575V208.955 M147.676,218.263h2.158c2.262,0,3.302-1.716,3.302-4.654
				c0-2.833-1.56-3.821-3.458-3.821h-2.002V218.263z"/>
			<path fill="#FFFFFF" d="M183.74,227.156c-4.135-4.889-8.424-10.01-12.663-15.003v11.493c0,0.547,0.104,0.988,0.156,1.405
				c0.13,0.936,1.014,1.299,2.73,1.43v0.676h-6.371v-0.676c1.248-0.13,2.106-0.494,2.236-1.43c0.052-0.416,0.156-0.858,0.156-1.405
				V211.4c-0.728-0.936-1.534-1.768-3.016-1.768v-0.676h4.732c3.874,4.706,7.904,9.491,11.779,14.197h0.052v-10.686
				c0-0.546-0.104-0.988-0.156-1.403c-0.13-0.937-1.014-1.3-2.73-1.431v-0.676h6.37v0.676c-1.222,0.13-2.106,0.494-2.236,1.431
				c-0.052,0.415-0.156,0.858-0.156,1.403v14.691H183.74"/>
			<path fill="#FFFFFF" d="M203.214,209.631c-1.43,0-2.444,0.416-1.612,2.912c1.04,3.069,2.523,7.541,3.875,11.493
				c1.664-3.978,3.25-7.982,4.862-11.96c0.65-1.639-0.026-2.444-1.794-2.444v-0.676h5.616v0.676c-0.754,0-1.612,0.261-2.158,1.56
				c-2.184,5.33-4.394,10.635-6.578,15.965h-1.326c-1.586-4.498-3.38-9.516-4.94-13.937c-0.988-2.783-1.768-3.588-3.016-3.588
				v-0.676h7.072V209.631"/>
			<path fill="#FFFFFF" d="M228.721,223.907c0,2.418-0.104,2.288,2.236,2.574v0.676h-6.994v-0.676
				c2.34-0.286,2.236-0.156,2.236-2.574v-11.701c0-2.418,0.104-2.289-2.236-2.575v-0.676h6.994v0.676
				c-2.34,0.286-2.236,0.157-2.236,2.575V223.907 M226.173,207.603h-1.066l3.614-3.641c0.364-0.468,1.092-0.883,1.56-0.883
				c0.52,0,0.858,0.389,0.858,0.987c0,0.494-0.728,0.91-1.196,1.196L226.173,207.603z"/>
			<path fill="#FFFFFF" d="M250.432,212.829c-0.208-1.82-1.196-3.276-3.276-3.276c-1.508,0-2.86,0.78-2.86,2.704
				c0,1.821,1.82,2.912,4.42,4.862c2.756,2.054,3.64,3.381,3.64,5.538c0,3.095-3.172,4.811-6.292,4.811
				c-1.664,0-3.094-0.312-4.446-0.832c-0.104-0.053-0.182-0.157-0.182-0.365v-3.744h0.676c0.285,2.886,2.184,4.029,4.186,4.029
				c1.846,0,3.354-1.403,3.354-3.302c0-1.689-0.91-3.068-4.81-5.642c-1.404-0.937-3.146-1.95-3.146-4.784
				c0-2.34,2.6-4.186,5.59-4.186c1.119,0,2.6,0.13,3.641,0.494c0.156,0.053,0.182,0.156,0.182,0.286v3.406H250.432"/>
			<path fill="#FFFFFF" d="M267.593,223.907c0,2.418-0.104,2.288,2.236,2.574v0.676h-6.994v-0.676
				c2.34-0.286,2.236-0.156,2.236-2.574v-11.701c0-2.418,0.104-2.289-2.236-2.575v-0.676h6.994v0.676
				c-2.34,0.286-2.236,0.157-2.236,2.575V223.907"/>
		</g>
	</g>
</g>
</svg>
