<?xml version="1.0" encoding="utf-8"?>
<!-- Generator: Adobe Illustrator 16.0.0, SVG Export Plug-In . SVG Version: 6.00 Build 0)  -->
<!DOCTYPE svg PUBLIC "-//W3C//DTD SVG 1.1//EN" "http://www.w3.org/Graphics/SVG/1.1/DTD/svg11.dtd">
<svg version="1.1" id="Layer_1" xmlns="http://www.w3.org/2000/svg" xmlns:xlink="http://www.w3.org/1999/xlink" x="0px" y="0px"
	 width="90.75px" height="2063.997px" viewBox="0 0 90.75 2063.997" enable-background="new 0 0 90.75 2063.997"
	 xml:space="preserve">
<g>
	<path fill="#FFFFFF" d="M89.599,534.809L49.48,494.651c-2.053-2.128-5.408-2.128-7.459,0l-40.12,40.157
		c-2.052,2.127-1.286,3.867,1.701,3.867h8.363v30.842c0,2.23,0.096,4.037,4.122,4.037H35.56v-30.928h20.379v30.928h20.443
		c3.07,0,3.152-1.807,3.152-4.037v-30.842h8.363C90.884,538.676,91.65,536.936,89.599,534.809z"/>
</g>
<g>
	<path fill="#FFFFFF" d="M75.25,772.721h-60c-2.762,0-5,2.238-5,5s2.238,5,5,5h60c2.762,0,5-2.238,5-5S78.011,772.721,75.25,772.721
		z M15.25,762.721h60c2.762,0,5-2.238,5-5s-2.238-5-5-5h-60c-2.762,0-5,2.238-5,5S12.488,762.721,15.25,762.721z M75.25,792.721h-60
		c-2.762,0-5,2.238-5,5s2.238,5,5,5h60c2.762,0,5-2.238,5-5S78.011,792.721,75.25,792.721z"/>
</g>
<path fill="#FFFFFF" d="M81.864,274.841c-7.918-18.421-20.658-32.452-27.105-29.831c-10.947,4.449,6.521,25.817-47.234,47.667
	c-4.643,1.888-5.82,9.441-3.877,13.957c1.939,4.516,8.291,9.01,12.936,7.123c0.803-0.326,3.754-1.275,3.754-1.275
	c3.316,4.45,6.787,1.811,8.018,4.639c1.479,3.398,4.697,10.785,5.789,13.299c1.096,2.51,3.576,4.837,5.377,4.152
	c1.795-0.684,7.91-3.011,10.25-3.9c2.338-0.891,2.896-2.975,2.182-4.619c-0.771-1.772-3.932-2.292-4.832-4.36
	c-0.902-2.068-3.848-8.696-4.695-10.784c-1.152-2.842,1.295-5.152,4.85-5.523c24.467-2.549,29.041,12.561,37.371,9.174
	C91.093,311.938,89.78,293.263,81.864,274.841z M79.108,304.725c-1.432,0.582-11.061-7.014-17.215-21.334
	c-6.152-14.318-5.379-27.408-3.949-27.989c1.43-0.582,10.822,8.58,16.975,22.898C81.071,292.617,80.54,304.143,79.108,304.725z"/>
<g>
	<path fill="#FFFFFF" d="M80,986.111h-4.5v10h-16v-10h-29v10h-16v-10H10c-5.5,0-10,4.5-10,10v60c0,5.5,4.5,10,10,10h70
		c5.5,0,10-4.5,10-10v-60C90,990.611,85.5,986.111,80,986.111z M80,1056.111H10v-40h70V1056.111z M26,976.111h-7v17h7V976.111z
		 M71,976.111h-7v17h7V976.111z"/>
</g>
<g>
	<path fill="#FFFFFF" d="M90.375,1549.098c0,0-0.176-16.945-1.211-18.703c-1.54-2.615-5.127-4.414-11.787-7.195
		c-6.638-2.775-8.76-5.115-8.76-10.127c0-3.012,2.026-2.027,2.918-7.535c0.369-2.287,2.159-0.039,2.501-5.256
		c0-2.08-0.977-2.6-0.977-2.6s0.497-3.074,0.69-5.445c0.242-2.949-1.487-10.572-10.699-10.572c-9.214,0-10.941,7.623-10.7,10.572
		c0.194,2.371,0.688,5.445,0.688,5.445s-0.975,0.52-0.975,2.6c0.342,5.217,2.13,2.969,2.501,5.256
		c0.89,5.508,2.918,4.523,2.918,7.535c0,3.406-0.986,5.58-3.703,7.494c14.502,7.26,16.445,8.738,16.445,15.229v13.303H90.375z
		 M46.625,1525.717c-8.852-3.697-11.68-6.82-11.68-13.502c0-4.012,2.702-2.699,3.889-10.047c0.491-3.047,2.879-0.051,3.335-7.008
		c0-2.773-1.302-3.463-1.302-3.463s0.663-4.102,0.921-7.26c0.321-3.936-1.982-14.1-14.268-14.1c-12.284,0-14.589,10.164-14.266,14.1
		c0.259,3.158,0.92,7.26,0.92,7.26s-1.302,0.689-1.302,3.463c0.458,6.957,2.844,3.961,3.337,7.008
		c1.187,7.348,3.89,6.035,3.89,10.047c0,6.682-2.831,9.805-11.681,13.502c-2.697,1.129-7.543,2.875-7.543,7.076v16.305H63.05
		c0,0,0-9.645,0-12.225C63.05,1533.039,55.503,1529.43,46.625,1525.717z"/>
</g>
<g>
	<path fill="#FFFFFF" d="M79.671,1265.473c0-5.238,3.223-9.373,8.078-12.215c-0.873-2.922-2.033-5.723-3.459-8.359
		c-5.443,1.426-9.85-0.709-13.555-4.412c-3.703-3.703-4.838-8.111-3.412-13.555c-2.637-1.426-5.436-2.586-8.361-3.459
		c-2.842,4.855-7.975,8.078-13.212,8.078c-5.237,0-10.37-3.223-13.213-8.078c-2.923,0.873-5.723,2.033-8.359,3.457
		c1.424,5.445,0.291,9.852-3.413,13.557s-8.112,5.838-13.556,4.414c-1.426,2.635-2.585,5.436-3.459,8.357
		c4.855,2.842,8.079,6.977,8.079,12.215c0,5.236-3.223,10.371-8.079,13.211c0.874,2.926,2.033,5.725,3.459,8.361
		c5.444-1.424,9.852-0.291,13.556,3.414c3.703,3.703,4.837,8.111,3.413,13.555c2.636,1.426,5.436,2.586,8.36,3.459
		c2.843-4.855,7.975-8.08,13.212-8.08c5.238,0,10.371,3.225,13.212,8.08c2.926-0.875,5.725-2.033,8.361-3.461
		c-1.424-5.441-0.291-9.85,3.412-13.553c3.705-3.705,8.111-5.838,13.555-4.414c1.426-2.637,2.586-5.436,3.459-8.361
		C82.894,1274.844,79.671,1270.709,79.671,1265.473z M45.75,1283.738c-10.087,0-18.265-8.18-18.265-18.266
		c0-10.088,8.177-18.266,18.265-18.266s18.265,8.178,18.265,18.266C64.015,1275.559,55.837,1283.738,45.75,1283.738z"/>
</g>
<g>
	<path fill="#FFFFFF" d="M3.72,21.678c2.441,1.312,36.241,19.468,37.499,20.144c1.259,0.677,2.889,1.003,4.531,1.003
		c1.642,0,3.273-0.326,4.531-1.003c1.258-0.676,35.059-18.832,37.5-20.144c2.441-1.311,4.754-5.428,0.266-5.428H3.453
		C-1.031,16.25,1.277,20.367,3.72,21.678z M88.814,31.678c-2.773,1.447-36.834,19.258-38.533,20.144
		c-1.699,0.888-2.889,1.003-4.531,1.003c-1.643,0-2.832-0.115-4.531-1.003C39.521,50.937,5.461,33.125,2.686,31.678
		c-1.952-1.018-1.936,0.176-1.936,1.098s0,36.679,0,36.679c0,2.096,2.792,4.795,4.959,4.795h80.082c2.168,0,4.959-2.699,4.959-4.795
		c0,0,0-35.757,0-36.679S90.769,30.661,88.814,31.678z"/>
</g>
<g>
	<path fill="#FFFFFF" d="M82.974,1780.98l-18.895-18.895c2.85-4.68,4.49-10.176,4.49-16.057c0-17.084-14.803-31.885-31.889-31.885
		c-17.082,0-30.932,13.85-30.932,30.934s14.803,31.885,31.885,31.885c5.68,0,11-1.539,15.574-4.211l18.996,18.998
		c1.859,1.859,4.873,1.859,6.73,0l4.713-4.711C85.507,1785.18,84.833,1782.84,82.974,1780.98z M15.269,1745.078
		c0-11.828,9.588-21.416,21.412-21.416c11.83,0,22.369,10.539,22.369,22.367c0,11.826-9.588,21.416-21.416,21.416
		C25.808,1767.445,15.269,1756.906,15.269,1745.078z"/>
</g>
</svg>
