<?xml version="1.0" encoding="utf-8"?>
<!-- Generator: Adobe Illustrator 17.0.0, SVG Export Plug-In . SVG Version: 6.00 Build 0)  -->
<!DOCTYPE svg PUBLIC "-//W3C//DTD SVG 1.1//EN" "http://www.w3.org/Graphics/SVG/1.1/DTD/svg11.dtd">
<svg version="1.1" xmlns="http://www.w3.org/2000/svg" xmlns:xlink="http://www.w3.org/1999/xlink" x="0px" y="0px"
	 width="335.333px" height="161px" viewBox="0 0 335.333 161" enable-background="new 0 0 335.333 161" xml:space="preserve">
<g id="Layer_1">
	<path d="M185.172,45.194C179.86,31.922,172.568,21.018,167.349,4h-0.038c-5.204,17.018-12.492,27.886-17.821,41.194
		C141.667,64.754,157.751,79,167.312,79h0.038C176.914,79,192.995,64.754,185.172,45.194z M163.046,68.184
		c-0.604,0.503-1.844,1.053-3.687,0.714c-2.445-0.445-4.219-3.582-4.601-4.428c-0.984-2.163-2.142-6.227-1.331-11.787
		c0.82-5.562,3.983-11.997,3.983-11.997l2.287-0.078c0.107,2.741-0.367,7.749-0.173,10.157c0.541,6.802,2.518,9.605,3.515,11.216
		C164.633,64.569,164.017,67.396,163.046,68.184z M224.846,129.201c-0.34,2.922-5.202,5.153-14.449,6.85
		c-6.753,1.239-13.501,1.704-13.568,1.709l-0.065-0.855c5.406-0.436,14.79-4.603,16.194-7.246c0.233-0.438,0.12-0.487,0.082-0.552
		c-2.504-4.433-23.476-5.709-42.269-5.709c-1.605,0-5.469,0.005-7.04,0.005c-18.382,0-38.917,0.976-41.421,5.408
		c-0.038,0.066-0.151,0.274,0.081,0.712c1.401,2.642,10.782,6.901,16.189,7.337l-0.065,0.923c-2.785-0.18-27.235-1.894-28.016-8.592
		c-0.061-0.524,0.116-0.903,0.527-1.365c5.198-5.857,53.15-5.826,55.189-5.826h2.019c2.076,0,50.875-0.031,56.089,5.842
		C224.73,128.299,224.906,128.682,224.846,129.201z M282.659,129.263c-1.478,12.65-50.906,15.835-53.01,15.972l-0.065-0.801
		c10.389-0.838,28.451-8.861,31.17-13.979c0.369-0.695,0.42-0.894,0.153-1.366C253.77,116.446,168.747,117,167.889,117h-1.329
		c-0.849,0-84.978-0.542-92.12,12.101c-0.267,0.472-0.217,0.317,0.151,1.012c2.717,5.119,20.776,13.35,31.166,14.188l-0.065,0.943
		c-2.103-0.136-51.526-3.377-53.004-16.027c-0.097-0.83,0.192-1.432,0.856-2.186C63.451,115.789,162.33,115,166.535,115h1.372
		c4.245,0,103.975,0.79,113.899,12.046C282.467,127.795,282.754,128.438,282.659,129.263z M331.329,129.405
		c0,17.983-72.023,22.749-75.09,22.937l-0.063-0.793c14.51-1.175,38.14-11.578,43.592-19.361c0.916-1.307,1.248-2.049,0.988-2.996
		C295.623,110.485,169.805,110,168.535,110h-1.731c-1.267,0-127.079,0.487-132.214,19.194c-0.26,0.946,0.073,1.291,0.988,2.599
		c5.453,7.783,29.083,18.391,43.595,19.565l-0.064,0.903c-3.066-0.188-75.093-4.793-75.098-22.775
		c-0.003-9.236,23.912-15.753,71.081-19.45c36.875-2.891,76.878-3.036,88.259-3.036c2.214,0,6.435,0,8.646,0
		c11.381,0,51.381-0.117,88.254,2.773C307.42,113.47,331.335,120.169,331.329,129.405z"/>
</g>
<g id="Layer_3">
</g>
</svg>
